//Event file generated from Sappy .s format.
	#include "MPlayDef.event"

	#define	GharnefSong_grp  voicegroup000
	#define	GharnefSong_pri  0
	#define	GharnefSong_rev  0
	#define	GharnefSong_mvl  85
	#define	GharnefSong_key  0
	#define	GharnefSong_tbs  1
	#define	GharnefSong_exg  0
	#define	GharnefSong_cmp  1

	// .rodata
	//	GharnefSong
	ALIGN 4

//**************** Track 1 (Midi-Chn.1) ****************//

GharnefSong_1:
	BYTE	KEYSH   GharnefSong_key+0
GharnefSong_1_B1:
// 000   ----------------------------------------
	BYTE	TEMPO   120*GharnefSong_tbs/2
	BYTE		VOICE   48
	BYTE		MOD     0
	BYTE		VOL     95*GharnefSong_mvl/mxv
	BYTE		PAN     c_v-17
	BYTE		TIE     Cn2   v104
	BYTE	W12
	BYTE	W09
	BYTE	W09
	BYTE	W09
	BYTE	W06
	BYTE	W06
	BYTE	W06
	BYTE	W06
	BYTE	W06
	BYTE	W06
	BYTE	W06
	BYTE	W03
	BYTE	W06
	BYTE	W03
	BYTE	W03
// 001   ----------------------------------------
	BYTE	W06
	BYTE	W03
	BYTE	W03
	BYTE	W03
	BYTE	W03
	BYTE	W03
	BYTE	W03
	BYTE	W03
	BYTE	W01
	BYTE		MOD     1
	BYTE	W02
	BYTE	W03
	BYTE	W01
	BYTE		        2
	BYTE	W02
	BYTE	W01
	BYTE		        3
	BYTE	W02
	BYTE	W03
	BYTE	W01
	BYTE		        4
	BYTE	W02
	BYTE	W01
	BYTE		        5
	BYTE	W02
	BYTE	W01
	BYTE		        6
	BYTE	W02
	BYTE	W01
	BYTE		        7
	BYTE	W02
	BYTE	W01
	BYTE		        8
	BYTE	W02
	BYTE	W01
	BYTE		        9
	BYTE	W02
	BYTE	W01
	BYTE		        10
	BYTE	W02
	BYTE	W01
	BYTE		        11
	BYTE	W02
	BYTE	W01
	BYTE		        13
	BYTE	W02
	BYTE	W01
	BYTE		        14
	BYTE	W02
	BYTE	W01
	BYTE		        16
	BYTE	W02
	BYTE	W01
	BYTE		        19
	BYTE	W03
	BYTE		        21
	BYTE	W02
	BYTE		        23
	BYTE	W14
	BYTE		EOT   
	BYTE	W01
// 002   ----------------------------------------
	BYTE		N02     Cs2   v120
	BYTE	W06
	BYTE		        Cn2 
	BYTE	W02
	BYTE		PAN     c_v-18
	BYTE	W03
	BYTE		MOD     22
	BYTE	W01
	BYTE		PAN     c_v-19
	BYTE	W03
	BYTE	W01
	BYTE		        c_v-20
	BYTE	W03
	BYTE	W01
	BYTE		        c_v-21
	BYTE	W03
	BYTE	W01
	BYTE		        c_v-22
	BYTE		MOD     21
	BYTE		N02     Cs2   v112
	BYTE	W03
	BYTE	W01
	BYTE		PAN     c_v-23
	BYTE	W02
	BYTE		N02     Cn2   v108
	BYTE	W01
	BYTE	W01
	BYTE		PAN     c_v-24
	BYTE	W03
	BYTE	W01
	BYTE		        c_v-25
	BYTE	W01
	BYTE		MOD     20
	BYTE	W02
	BYTE	W01
	BYTE		PAN     c_v-26
	BYTE	W03
	BYTE	W01
	BYTE		        c_v-27
	BYTE	W03
	BYTE	W01
	BYTE		        c_v-28
	BYTE		N02     Cs2   v100
	BYTE	W02
	BYTE		MOD     19
	BYTE	W01
	BYTE	W01
	BYTE		PAN     c_v-29
	BYTE	W02
	BYTE		N02     Cn2 
	BYTE	W02
	BYTE		PAN     c_v-30
	BYTE	W02
	BYTE	W02
	BYTE		        c_v-31
	BYTE	W02
	BYTE	W01
	BYTE		MOD     18
	BYTE	W01
	BYTE		PAN     c_v-32
	BYTE	W02
	BYTE	W02
	BYTE		        c_v-33
	BYTE	W02
	BYTE	W02
	BYTE		        c_v-34
	BYTE		N02     Cs2   v092
	BYTE	W02
	BYTE	W02
	BYTE		PAN     c_v-35
	BYTE		MOD     17
	BYTE	W02
	BYTE		N02     Cn2   v088
	BYTE	W02
	BYTE		PAN     c_v-36
	BYTE	W02
	BYTE	W02
	BYTE		        c_v-37
	BYTE	W02
	BYTE	W02
	BYTE		        c_v-38
	BYTE	W01
	BYTE		MOD     16
	BYTE	W01
	BYTE	W02
	BYTE		PAN     c_v-39
	BYTE	W01
	BYTE	W03
// 003   ----------------------------------------
	BYTE		        c_v-40
	BYTE		N02     Cs2   v080
	BYTE	W01
	BYTE	W03
	BYTE		PAN     c_v-41
	BYTE	W01
	BYTE	W01
	BYTE		MOD     15
	BYTE		N02     Cn2 
	BYTE	W02
	BYTE		PAN     c_v-42
	BYTE	W01
	BYTE	W03
	BYTE		        c_v-43
	BYTE	W01
	BYTE	W03
	BYTE		        c_v-44
	BYTE	W01
	BYTE	W03
	BYTE		MOD     14
	BYTE		PAN     c_v-45
	BYTE	W01
	BYTE	W03
	BYTE		        c_v-46
	BYTE		N02     Cs2   v072
	BYTE	W01
	BYTE	W03
	BYTE		PAN     c_v-47
	BYTE	W01
	BYTE	W01
	BYTE		N02     Cn2   v068
	BYTE	W02
	BYTE		PAN     c_v-48
	BYTE	W01
	BYTE		MOD     13
	BYTE	W03
	BYTE		PAN     c_v-49
	BYTE	W04
	BYTE		        c_v-50
	BYTE	W04
	BYTE		        c_v-51
	BYTE	W02
	BYTE		MOD     12
	BYTE	W02
	BYTE		PAN     c_v-52
	BYTE		N02     Cs2   v060
	BYTE	W04
	BYTE		PAN     c_v-53
	BYTE	W02
	BYTE		N02     Cn2 
	BYTE	W02
	BYTE		PAN     c_v-54
	BYTE	W03
	BYTE		MOD     11
	BYTE	W01
	BYTE		PAN     c_v-55
	BYTE	W04
	BYTE	W01
	BYTE		        c_v-56
	BYTE	W03
	BYTE	W01
	BYTE		        c_v-57
	BYTE	W03
	BYTE		MOD     10
	BYTE		N02     Cs2   v052
	BYTE	W01
	BYTE		PAN     c_v-58
	BYTE	W02
	BYTE	W02
	BYTE		        c_v-59
	BYTE	W01
	BYTE		N02     Cn2   v048
	BYTE	W01
	BYTE	W02
	BYTE		PAN     c_v-60
	BYTE	W02
	BYTE	W02
	BYTE		        c_v-61
	BYTE		MOD     9
	BYTE	W02
	BYTE	W02
	BYTE		PAN     c_v-62
	BYTE	W02
	BYTE	W02
	BYTE		        c_v-64
	BYTE	W02
	BYTE	W01
// 004   ----------------------------------------
	BYTE		N02     Cs2   v040
	BYTE	W02
	BYTE		MOD     8
	BYTE	W01
	BYTE	W03
	BYTE		N02     Cn2 
	BYTE	W01
	BYTE	W04
	BYTE	W04
	BYTE		MOD     7
	BYTE	W03
	BYTE	W04
	BYTE	W02
	BYTE		N02     Cs2   v032
	BYTE	W02
	BYTE	W02
	BYTE		MOD     6
	BYTE	W02
	BYTE		N02     Cn2   v028
	BYTE	W04
	BYTE	W04
	BYTE	W03
	BYTE		MOD     5
	BYTE	W01
	BYTE	W04
	BYTE	W02
	BYTE		N02     Cs2   v020
	BYTE	W02
	BYTE	W04
	BYTE		        Cn2 
	BYTE	W01
	BYTE		MOD     4
	BYTE	W02
	BYTE	W04
	BYTE	W04
	BYTE	W03
	BYTE		        3
	BYTE	W01
	BYTE	W03
	BYTE		N02     Cs2   v012
	BYTE	W01
	BYTE	W04
	BYTE	W01
	BYTE		        Cn2   v008
	BYTE	W03
	BYTE		MOD     2
	BYTE	W04
	BYTE	W04
	BYTE	W04
	BYTE	W01
	BYTE		        0
	BYTE		PAN     c_v-17
	BYTE	W02
// 005   ----------------------------------------
	BYTE		N44     Cs2   v092
	BYTE	W01
	BYTE	W02
	BYTE	W01
	BYTE	W02
	BYTE	W01
	BYTE	W02
	BYTE	W01
	BYTE	W02
	BYTE	W01
	BYTE	W02
	BYTE	W01
	BYTE	W02
	BYTE	W01
	BYTE	W02
	BYTE	W01
	BYTE	W02
	BYTE	W01
	BYTE	W02
	BYTE	W01
	BYTE	W02
	BYTE	W01
	BYTE	W02
	BYTE	W01
	BYTE	W02
	BYTE	W01
	BYTE	W02
	BYTE	W09
	BYTE		        En2 
	BYTE	W06
	BYTE	W01
	BYTE	W02
	BYTE	W01
	BYTE	W02
	BYTE	W01
	BYTE	W02
	BYTE	W01
	BYTE	W02
	BYTE	W01
	BYTE	W02
	BYTE	W01
	BYTE	W02
	BYTE	W01
	BYTE	W02
	BYTE	W01
	BYTE	W02
	BYTE	W01
	BYTE	W02
	BYTE	W01
	BYTE	W02
	BYTE	W01
	BYTE	W02
	BYTE	W01
	BYTE	W02
	BYTE	W01
	BYTE	W02
	BYTE	W01
	BYTE	W02
// 006   ----------------------------------------
	BYTE		TIE     As2   v080
	BYTE	W09
	BYTE	W06
	BYTE	W06
	BYTE	W06
	BYTE	W06
	BYTE	W06
	BYTE	W06
	BYTE	W03
	BYTE	W06
	BYTE	W03
	BYTE	W06
	BYTE	W03
	BYTE	W06
	BYTE	W03
	BYTE	W03
	BYTE	W03
	BYTE	W03
	BYTE	W06
	BYTE	W03
	BYTE	W03
// 007   ----------------------------------------
	BYTE	W03
	BYTE	W03
	BYTE	W03
	BYTE	W03
	BYTE	W03
	BYTE	W03
	BYTE	W03
	BYTE	W03
	BYTE	W03
	BYTE	W03
	BYTE	W03
	BYTE	W03
	BYTE		MOD     1
	BYTE	W03
	BYTE	W03
	BYTE		        2
	BYTE	W03
	BYTE		        3
	BYTE	W03
	BYTE	W03
	BYTE		        4
	BYTE	W03
	BYTE		        5
	BYTE	W03
	BYTE		        6
	BYTE	W03
	BYTE	W03
	BYTE		        7
	BYTE	W03
	BYTE		        8
	BYTE	W03
	BYTE		        9
	BYTE	W01
	BYTE	W02
	BYTE		        10
	BYTE	W03
	BYTE		        11
	BYTE	W03
	BYTE		        13
	BYTE	W03
	BYTE		        14
	BYTE	W01
	BYTE	W02
	BYTE		        15
	BYTE	W02
	BYTE	W01
	BYTE		        16
	BYTE	W03
	BYTE	W01
	BYTE		        18
	BYTE	W03
	BYTE		        20
	BYTE	W01
	BYTE		EOT   
	BYTE	W01
// 008   ----------------------------------------
	BYTE		N02     Bn2   v120
	BYTE	W01
	BYTE		MOD     22
	BYTE	W01
	BYTE	W04
	BYTE		N02     As2 
	BYTE	W02
	BYTE		PAN     c_v-18
	BYTE	W02
	BYTE	W02
	BYTE		        c_v-19
	BYTE	W02
	BYTE	W02
	BYTE		        c_v-20
	BYTE	W02
	BYTE	W02
	BYTE		        c_v-21
	BYTE	W02
	BYTE	W02
	BYTE		        c_v-22
	BYTE		N02     Bn2   v112
	BYTE	W02
	BYTE	W01
	BYTE		MOD     21
	BYTE	W01
	BYTE		PAN     c_v-23
	BYTE	W02
	BYTE		N02     As2   v108
	BYTE	W02
	BYTE		PAN     c_v-24
	BYTE	W02
	BYTE	W02
	BYTE		        c_v-25
	BYTE	W02
	BYTE	W02
	BYTE		MOD     20
	BYTE		PAN     c_v-26
	BYTE	W02
	BYTE	W02
	BYTE		        c_v-27
	BYTE	W02
	BYTE	W02
	BYTE		        c_v-28
	BYTE		N02     Bn2   v100
	BYTE	W02
	BYTE	W02
	BYTE		PAN     c_v-29
	BYTE	W01
	BYTE		MOD     19
	BYTE	W01
	BYTE		N02     As2 
	BYTE	W02
	BYTE		PAN     c_v-30
	BYTE	W02
	BYTE	W02
	BYTE		        c_v-31
	BYTE	W02
	BYTE	W02
	BYTE		        c_v-32
	BYTE	W02
	BYTE		MOD     18
	BYTE	W02
	BYTE		PAN     c_v-33
	BYTE	W02
	BYTE	W02
	BYTE		        c_v-34
	BYTE		N02     Bn2   v092
	BYTE	W02
	BYTE	W02
	BYTE		PAN     c_v-35
	BYTE	W02
	BYTE		N02     As2   v088
	BYTE	W01
	BYTE		MOD     17
	BYTE	W02
	BYTE		PAN     c_v-36
	BYTE	W01
	BYTE	W03
	BYTE		        c_v-37
	BYTE	W01
	BYTE	W03
	BYTE		        c_v-38
	BYTE	W01
	BYTE	W02
	BYTE		MOD     16
	BYTE	W01
	BYTE		PAN     c_v-39
	BYTE	W01
	BYTE	W02
// 009   ----------------------------------------
	BYTE		N02     Bn2   v080
	BYTE	W01
	BYTE		PAN     c_v-40
	BYTE	W01
	BYTE	W03
	BYTE		        c_v-41
	BYTE	W01
	BYTE		N02     As2 
	BYTE	W03
	BYTE		PAN     c_v-42
	BYTE		MOD     15
	BYTE	W01
	BYTE	W03
	BYTE		PAN     c_v-43
	BYTE	W01
	BYTE	W03
	BYTE		        c_v-44
	BYTE	W01
	BYTE	W03
	BYTE		        c_v-45
	BYTE	W01
	BYTE		MOD     14
	BYTE	W02
	BYTE		N02     Bn2   v072
	BYTE	W01
	BYTE		PAN     c_v-46
	BYTE	W01
	BYTE	W03
	BYTE		        c_v-47
	BYTE	W01
	BYTE		N02     As2   v068
	BYTE	W03
	BYTE		PAN     c_v-48
	BYTE	W01
	BYTE	W01
	BYTE		MOD     13
	BYTE	W02
	BYTE		PAN     c_v-49
	BYTE	W01
	BYTE	W03
	BYTE		        c_v-50
	BYTE	W01
	BYTE	W03
	BYTE		        c_v-51
	BYTE	W01
	BYTE	W02
	BYTE		MOD     12
	BYTE		N02     Bn2   v060
	BYTE	W01
	BYTE		PAN     c_v-52
	BYTE	W01
	BYTE	W03
	BYTE		        c_v-53
	BYTE	W01
	BYTE		N02     As2 
	BYTE	W03
	BYTE		PAN     c_v-54
	BYTE	W01
	BYTE	W03
	BYTE		MOD     11
	BYTE		PAN     c_v-55
	BYTE	W01
	BYTE	W04
	BYTE		        c_v-56
	BYTE	W04
	BYTE		        c_v-57
	BYTE	W02
	BYTE		N02     Bn2   v052
	BYTE	W02
	BYTE		PAN     c_v-58
	BYTE		MOD     10
	BYTE	W04
	BYTE		PAN     c_v-59
	BYTE		N02     As2   v048
	BYTE	W04
	BYTE		PAN     c_v-60
	BYTE	W04
	BYTE		        c_v-61
	BYTE	W01
	BYTE		MOD     9
	BYTE	W03
	BYTE		PAN     c_v-62
	BYTE	W04
	BYTE		        c_v-63
	BYTE	W01
	BYTE		        c_v-64
	BYTE	W01
// 010   ----------------------------------------
	BYTE		N02     Bn2   v040
	BYTE	W02
	BYTE	W02
	BYTE		MOD     8
	BYTE	W02
	BYTE		N02     As2 
	BYTE	W04
	BYTE	W04
	BYTE	W03
	BYTE		MOD     7
	BYTE	W01
	BYTE	W04
	BYTE	W02
	BYTE		N02     Bn2   v032
	BYTE	W02
	BYTE	W04
	BYTE		MOD     6
	BYTE		N02     As2   v028
	BYTE	W04
	BYTE	W04
	BYTE	W04
	BYTE	W01
	BYTE		MOD     5
	BYTE	W03
	BYTE	W02
	BYTE		N02     Bn2   v020
	BYTE	W02
	BYTE	W04
	BYTE		        As2 
	BYTE	W02
	BYTE		MOD     4
	BYTE	W02
	BYTE	W04
	BYTE	W04
	BYTE	W03
	BYTE		        3
	BYTE	W01
	BYTE	W02
	BYTE		N02     Bn2   v012
	BYTE	W02
	BYTE	W04
	BYTE		        As2   v008
	BYTE	W04
	BYTE		MOD     2
	BYTE	W04
	BYTE	W04
	BYTE	W04
	BYTE		PAN     c_v-53
	BYTE	W01
	BYTE		        c_v-41
	BYTE		MOD     1
	BYTE		PAN     c_v-29
	BYTE	W01
// 011   ----------------------------------------
	BYTE		MOD     0
	BYTE		PAN     c_v-17
	BYTE	W96
	BYTE	GoTo
	 POIN2	GharnefSong_1_B1
GharnefSong_1_B2:
// 012   ----------------------------------------
	BYTE	FINE

//**************** Track 2 (Midi-Chn.2) ****************//

GharnefSong_2:
	BYTE	KEYSH   GharnefSong_key+0
GharnefSong_2_B1:
// 000   ----------------------------------------
	BYTE		VOICE   48
	BYTE		MOD     0
	BYTE		VOL     80*GharnefSong_mvl/mxv
	BYTE		PAN     c_v+18
	BYTE		TIE     Cn4   v127
	BYTE	W12
	BYTE	W06
	BYTE	W09
	BYTE	W01
	BYTE		MOD     1
	BYTE	W04
	BYTE		        2
	BYTE	W01
	BYTE	W04
	BYTE		        3
	BYTE	W04
	BYTE		        4
	BYTE	W01
	BYTE	W04
	BYTE		        5
	BYTE	W02
	BYTE	W02
	BYTE		        6
	BYTE	W04
	BYTE	W01
	BYTE		        7
	BYTE	W04
	BYTE		        8
	BYTE	W01
	BYTE	W03
	BYTE	W01
	BYTE		        9
	BYTE	W04
	BYTE		        10
	BYTE	W01
	BYTE	W03
	BYTE		        11
	BYTE	W05
	BYTE		        12
	BYTE	W01
	BYTE	W03
	BYTE		        13
	BYTE	W05
	BYTE		        14
	BYTE	W01
	BYTE	W03
	BYTE		        15
	BYTE	W03
	BYTE	W02
	BYTE		        16
	BYTE	W01
// 001   ----------------------------------------
	BYTE	W03
	BYTE		        17
	BYTE	W03
	BYTE	W02
	BYTE		        18
	BYTE	W01
	BYTE	W03
	BYTE		        19
	BYTE	W03
	BYTE	W01
	BYTE		        20
	BYTE	W02
	BYTE	W03
	BYTE		        21
	BYTE	W03
	BYTE	W01
	BYTE		        22
	BYTE	W02
	BYTE	W03
	BYTE		        23
	BYTE	W03
	BYTE	W01
	BYTE		        24
	BYTE	W02
	BYTE	W03
	BYTE		        25
	BYTE	W03
	BYTE	W01
	BYTE		        26
	BYTE	W02
	BYTE	W03
	BYTE		        27
	BYTE	W03
	BYTE	W01
	BYTE		        28
	BYTE	W02
	BYTE	W03
	BYTE		        29
	BYTE	W03
	BYTE	W01
	BYTE		        30
	BYTE	W02
	BYTE	W02
	BYTE		        31
	BYTE	W01
	BYTE	W03
	BYTE	W01
	BYTE		        32
	BYTE	W02
	BYTE	W02
	BYTE		        33
	BYTE	W01
	BYTE	W01
	BYTE	W03
	BYTE		        34
	BYTE	W04
	BYTE		        35
	BYTE	W05
	BYTE		        36
	BYTE	W04
	BYTE		        37
	BYTE	W03
	BYTE		EOT   
	BYTE	W01
// 002   ----------------------------------------
	BYTE		N05     Cs4   v120
	BYTE	W01
	BYTE		MOD     39
	BYTE	W03
	BYTE		PAN     c_v+19
	BYTE	W02
	BYTE		N05     Cn4 
	BYTE	W02
	BYTE		PAN     c_v+20
	BYTE	W04
	BYTE		        c_v+21
	BYTE	W04
	BYTE		MOD     38
	BYTE	W01
	BYTE		PAN     c_v+22
	BYTE	W04
	BYTE		        c_v+23
	BYTE	W02
	BYTE		MOD     37
	BYTE	W01
	BYTE		N05     Cs4   v112
	BYTE	W01
	BYTE		PAN     c_v+24
	BYTE	W05
	BYTE		        c_v+25
	BYTE		MOD     36
	BYTE		N05     Cn4   v108
	BYTE	W04
	BYTE		PAN     c_v+26
	BYTE	W01
	BYTE	W02
	BYTE		MOD     35
	BYTE	W01
	BYTE		PAN     c_v+27
	BYTE	W03
	BYTE	W02
	BYTE		        c_v+28
	BYTE	W02
	BYTE		MOD     34
	BYTE	W02
	BYTE		PAN     c_v+29
	BYTE	W01
	BYTE		N05     Cs4   v100
	BYTE	W03
	BYTE		PAN     c_v+30
	BYTE	W01
	BYTE		MOD     33
	BYTE	W02
	BYTE		N05     Cn4 
	BYTE	W01
	BYTE		PAN     c_v+31
	BYTE	W03
	BYTE	W01
	BYTE		MOD     32
	BYTE	W01
	BYTE		PAN     c_v+32
	BYTE	W01
	BYTE	W03
	BYTE		        c_v+33
	BYTE	W01
	BYTE	W01
	BYTE		MOD     31
	BYTE	W02
	BYTE		PAN     c_v+34
	BYTE	W03
	BYTE	W01
	BYTE		N05     Cs4   v092
	BYTE	W01
	BYTE		PAN     c_v+35
	BYTE	W01
	BYTE		MOD     30
	BYTE	W01
	BYTE	W02
	BYTE		PAN     c_v+36
	BYTE	W01
	BYTE		N05     Cn4   v088
	BYTE	W03
	BYTE		MOD     29
	BYTE		PAN     c_v+37
	BYTE	W04
	BYTE	W01
	BYTE		        c_v+38
	BYTE	W02
	BYTE		MOD     28
	BYTE	W02
	BYTE		PAN     c_v+39
	BYTE	W01
	BYTE	W03
	BYTE		        c_v+40
	BYTE	W01
	BYTE		MOD     27
	BYTE	W01
// 003   ----------------------------------------
	BYTE		N05     Cs4   v080
	BYTE	W02
	BYTE		PAN     c_v+41
	BYTE	W03
	BYTE	W01
	BYTE		N05     Cn4 
	BYTE	W01
	BYTE		MOD     26
	BYTE		PAN     c_v+42
	BYTE	W01
	BYTE	W03
	BYTE		        c_v+43
	BYTE	W01
	BYTE	W02
	BYTE		MOD     25
	BYTE	W01
	BYTE		PAN     c_v+44
	BYTE	W03
	BYTE	W02
	BYTE		        c_v+45
	BYTE	W01
	BYTE		MOD     24
	BYTE	W01
	BYTE	W02
	BYTE		PAN     c_v+46
	BYTE		N05     Cs4   v072
	BYTE	W01
	BYTE	W03
	BYTE		PAN     c_v+47
	BYTE		MOD     23
	BYTE	W02
	BYTE		N05     Cn4   v068
	BYTE	W02
	BYTE	W01
	BYTE		PAN     c_v+48
	BYTE	W02
	BYTE	W01
	BYTE		MOD     22
	BYTE	W01
	BYTE		PAN     c_v+49
	BYTE	W01
	BYTE	W03
	BYTE		        c_v+50
	BYTE	W01
	BYTE	W01
	BYTE		MOD     21
	BYTE	W02
	BYTE		PAN     c_v+51
	BYTE	W03
	BYTE		N05     Cs4   v060
	BYTE	W02
	BYTE		PAN     c_v+52
	BYTE		MOD     20
	BYTE	W02
	BYTE	W02
	BYTE		PAN     c_v+53
	BYTE		N05     Cn4 
	BYTE	W01
	BYTE	W02
	BYTE		MOD     19
	BYTE	W01
	BYTE		PAN     c_v+54
	BYTE	W04
	BYTE	W01
	BYTE		        c_v+55
	BYTE	W02
	BYTE		MOD     18
	BYTE	W02
	BYTE		PAN     c_v+56
	BYTE	W01
	BYTE	W03
	BYTE		        c_v+57
	BYTE	W01
	BYTE		MOD     17
	BYTE		N05     Cs4   v052
	BYTE	W03
	BYTE	W01
	BYTE		PAN     c_v+58
	BYTE	W02
	BYTE		N05     Cn4   v048
	BYTE	W01
	BYTE		MOD     16
	BYTE	W01
	BYTE		PAN     c_v+59
	BYTE	W02
	BYTE	W02
	BYTE		        c_v+60
	BYTE	W01
	BYTE	W01
	BYTE		MOD     15
	BYTE	W02
	BYTE		PAN     c_v+61
	BYTE	W04
	BYTE	W01
	BYTE		        c_v+62
	BYTE	W01
	BYTE		MOD     14
	BYTE	W01
	BYTE	W01
// 004   ----------------------------------------
	BYTE		N05     Cs4   v040
	BYTE	W01
	BYTE		PAN     c_v+63
	BYTE	W01
	BYTE	W03
	BYTE		MOD     13
	BYTE	W01
	BYTE		N05     Cn4 
	BYTE	W03
	BYTE	W03
	BYTE		MOD     12
	BYTE	W04
	BYTE	W03
	BYTE		        11
	BYTE	W03
	BYTE	W02
	BYTE		N05     Cs4   v032
	BYTE	W02
	BYTE	W01
	BYTE		MOD     10
	BYTE	W02
	BYTE	W01
	BYTE		N05     Cn4   v028
	BYTE	W02
	BYTE	W02
	BYTE		MOD     9
	BYTE	W02
	BYTE	W03
	BYTE	W02
	BYTE		        8
	BYTE	W01
	BYTE	W03
	BYTE	W03
	BYTE		        7
	BYTE		N05     Cs4   v020
	BYTE	W01
	BYTE	W03
	BYTE	W02
	BYTE		        Cn4 
	BYTE	W01
	BYTE	W01
	BYTE		MOD     6
	BYTE	W03
	BYTE	W03
	BYTE	W01
	BYTE		        5
	BYTE	W02
	BYTE	W04
	BYTE	W01
	BYTE		        4
	BYTE	W02
	BYTE		N05     Cs4   v012
	BYTE	W03
	BYTE	W02
	BYTE		MOD     3
	BYTE	W01
	BYTE		N05     Cn4   v008
	BYTE	W01
	BYTE	W03
	BYTE	W03
	BYTE		MOD     2
	BYTE	W04
	BYTE	W03
	BYTE		        1
	BYTE	W01
	BYTE		        0
	BYTE	W01
	BYTE		PAN     c_v+18
	BYTE	W01
	BYTE	W01
// 005   ----------------------------------------
	BYTE		N44     Cs4   v116
	BYTE	W48
	BYTE		        En4 
	BYTE	W12
	BYTE	W01
	BYTE	W02
	BYTE	W01
	BYTE	W02
	BYTE	W01
	BYTE	W02
	BYTE	W01
	BYTE	W02
	BYTE	W01
	BYTE	W02
	BYTE	W01
	BYTE	W02
	BYTE	W01
	BYTE	W02
	BYTE	W01
	BYTE	W02
	BYTE	W01
	BYTE	W02
	BYTE	W01
	BYTE	W02
	BYTE	W01
	BYTE	W02
	BYTE	W01
	BYTE	W02
// 006   ----------------------------------------
	BYTE		TIE     As4   v127
	BYTE	W09
	BYTE	W02
	BYTE		MOD     1
	BYTE	W04
	BYTE	W02
	BYTE		        2
	BYTE	W04
	BYTE	W01
	BYTE		        3
	BYTE	W05
	BYTE		        4
	BYTE	W05
	BYTE		        5
	BYTE	W01
	BYTE	W05
	BYTE		        6
	BYTE	W01
	BYTE	W04
	BYTE		        7
	BYTE	W02
	BYTE	W03
	BYTE		        8
	BYTE	W05
	BYTE		        9
	BYTE	W01
	BYTE	W03
	BYTE	W01
	BYTE		        10
	BYTE	W05
	BYTE	W01
	BYTE		        11
	BYTE	W02
	BYTE	W03
	BYTE		        12
	BYTE	W03
	BYTE	W02
	BYTE		        13
	BYTE	W01
	BYTE	W03
	BYTE	W01
	BYTE		        14
	BYTE	W02
	BYTE	W03
	BYTE	W01
	BYTE		        15
	BYTE	W05
	BYTE		        16
	BYTE	W03
	BYTE	W02
	BYTE		        17
	BYTE	W01
// 007   ----------------------------------------
	BYTE	W03
	BYTE	W01
	BYTE		        18
	BYTE	W02
	BYTE	W03
	BYTE	W01
	BYTE		        19
	BYTE	W02
	BYTE	W03
	BYTE		        20
	BYTE	W03
	BYTE	W02
	BYTE		        21
	BYTE	W01
	BYTE	W03
	BYTE	W01
	BYTE		        22
	BYTE	W02
	BYTE	W03
	BYTE		        23
	BYTE	W03
	BYTE	W03
	BYTE		        24
	BYTE	W03
	BYTE	W02
	BYTE		        25
	BYTE	W01
	BYTE	W03
	BYTE	W01
	BYTE		        26
	BYTE	W02
	BYTE	W03
	BYTE		        27
	BYTE	W03
	BYTE	W03
	BYTE		        28
	BYTE	W03
	BYTE	W02
	BYTE		        29
	BYTE	W01
	BYTE	W03
	BYTE	W01
	BYTE		        30
	BYTE	W02
	BYTE	W01
	BYTE	W02
	BYTE		        31
	BYTE	W05
	BYTE		        32
	BYTE	W06
	BYTE		        33
	BYTE	W05
	BYTE		        34
	BYTE	W05
	BYTE		        35
	BYTE	W02
	BYTE		EOT   
	BYTE	W01
// 008   ----------------------------------------
	BYTE		N05     Bn4   v120
	BYTE	W02
	BYTE		MOD     36
	BYTE	W04
	BYTE		N05     As4 
	BYTE	W02
	BYTE		MOD     37
	BYTE		PAN     c_v+19
	BYTE	W04
	BYTE		        c_v+20
	BYTE	W01
	BYTE		MOD     39
	BYTE	W04
	BYTE		PAN     c_v+21
	BYTE	W04
	BYTE		        c_v+22
	BYTE	W03
	BYTE		N05     Bn4   v112
	BYTE	W01
	BYTE		PAN     c_v+23
	BYTE	W02
	BYTE		MOD     38
	BYTE	W02
	BYTE		PAN     c_v+24
	BYTE	W01
	BYTE		N05     As4   v108
	BYTE	W02
	BYTE	W02
	BYTE		PAN     c_v+25
	BYTE		MOD     37
	BYTE	W01
	BYTE	W03
	BYTE		PAN     c_v+26
	BYTE	W03
	BYTE		MOD     36
	BYTE	W01
	BYTE		PAN     c_v+27
	BYTE	W03
	BYTE	W01
	BYTE		        c_v+28
	BYTE	W02
	BYTE		MOD     35
	BYTE		N05     Bn4   v100
	BYTE	W03
	BYTE		PAN     c_v+29
	BYTE	W01
	BYTE	W02
	BYTE		N05     As4 
	BYTE	W01
	BYTE		PAN     c_v+30
	BYTE		MOD     34
	BYTE	W03
	BYTE	W01
	BYTE		PAN     c_v+31
	BYTE	W03
	BYTE		MOD     33
	BYTE	W01
	BYTE		PAN     c_v+32
	BYTE	W02
	BYTE	W03
	BYTE		        c_v+33
	BYTE	W01
	BYTE		MOD     32
	BYTE	W03
	BYTE		PAN     c_v+34
	BYTE		N05     Bn4   v092
	BYTE	W03
	BYTE	W01
	BYTE		PAN     c_v+35
	BYTE		MOD     31
	BYTE	W02
	BYTE		N05     As4   v088
	BYTE	W02
	BYTE		PAN     c_v+36
	BYTE	W02
	BYTE	W01
	BYTE		MOD     30
	BYTE	W02
	BYTE		PAN     c_v+37
	BYTE	W03
	BYTE	W01
	BYTE		        c_v+38
	BYTE	W01
	BYTE		MOD     29
	BYTE	W02
	BYTE	W01
	BYTE		PAN     c_v+39
	BYTE	W02
	BYTE	W01
// 009   ----------------------------------------
	BYTE		N05     Bn4   v080
	BYTE	W01
	BYTE		PAN     c_v+40
	BYTE		MOD     28
	BYTE	W01
	BYTE	W03
	BYTE	W01
	BYTE		PAN     c_v+41
	BYTE		N05     As4 
	BYTE	W02
	BYTE		MOD     27
	BYTE	W01
	BYTE	W01
	BYTE		PAN     c_v+42
	BYTE	W02
	BYTE	W02
	BYTE		        c_v+43
	BYTE	W01
	BYTE		MOD     26
	BYTE	W03
	BYTE		PAN     c_v+44
	BYTE	W01
	BYTE	W03
	BYTE		MOD     25
	BYTE	W01
	BYTE		PAN     c_v+45
	BYTE	W01
	BYTE		N05     Bn4   v072
	BYTE	W01
	BYTE	W02
	BYTE		PAN     c_v+46
	BYTE	W02
	BYTE		MOD     24
	BYTE	W01
	BYTE		N05     As4   v068
	BYTE	W01
	BYTE		PAN     c_v+47
	BYTE	W01
	BYTE	W03
	BYTE		        c_v+48
	BYTE	W01
	BYTE		MOD     23
	BYTE	W03
	BYTE	W01
	BYTE		PAN     c_v+49
	BYTE	W02
	BYTE	W01
	BYTE		MOD     22
	BYTE	W01
	BYTE		PAN     c_v+50
	BYTE	W01
	BYTE	W03
	BYTE		        c_v+51
	BYTE		N05     Bn4   v060
	BYTE	W01
	BYTE	W01
	BYTE		MOD     21
	BYTE	W02
	BYTE		PAN     c_v+52
	BYTE	W02
	BYTE		N05     As4 
	BYTE	W01
	BYTE	W02
	BYTE		PAN     c_v+53
	BYTE	W01
	BYTE		MOD     20
	BYTE	W01
	BYTE	W02
	BYTE		PAN     c_v+54
	BYTE	W01
	BYTE	W03
	BYTE		MOD     19
	BYTE		PAN     c_v+55
	BYTE	W04
	BYTE		        c_v+56
	BYTE	W03
	BYTE		MOD     18
	BYTE		N05     Bn4   v052
	BYTE	W02
	BYTE		PAN     c_v+57
	BYTE	W01
	BYTE	W03
	BYTE		        c_v+58
	BYTE		N05     As4   v048
	BYTE	W01
	BYTE		MOD     17
	BYTE	W03
	BYTE		PAN     c_v+59
	BYTE	W03
	BYTE	W01
	BYTE		MOD     16
	BYTE		PAN     c_v+60
	BYTE	W03
	BYTE	W02
	BYTE		        c_v+61
	BYTE	W01
	BYTE	W01
	BYTE		MOD     15
	BYTE	W02
	BYTE		PAN     c_v+62
	BYTE	W01
// 010   ----------------------------------------
	BYTE		        c_v+63
	BYTE		N05     Bn4   v040
	BYTE	W03
	BYTE	W01
	BYTE		MOD     14
	BYTE	W02
	BYTE		N05     As4 
	BYTE	W03
	BYTE	W02
	BYTE		MOD     13
	BYTE	W02
	BYTE	W03
	BYTE	W02
	BYTE		        12
	BYTE	W01
	BYTE	W04
	BYTE	W01
	BYTE		N05     Bn4   v032
	BYTE	W01
	BYTE		MOD     11
	BYTE	W01
	BYTE	W03
	BYTE	W01
	BYTE		N05     As4   v028
	BYTE	W02
	BYTE		MOD     10
	BYTE	W01
	BYTE	W03
	BYTE	W03
	BYTE		        9
	BYTE	W03
	BYTE	W04
	BYTE		        8
	BYTE	W02
	BYTE		N05     Bn4   v020
	BYTE	W01
	BYTE	W03
	BYTE	W01
	BYTE		MOD     7
	BYTE	W01
	BYTE		N05     As4 
	BYTE	W02
	BYTE	W03
	BYTE	W01
	BYTE		MOD     6
	BYTE	W02
	BYTE	W04
	BYTE	W01
	BYTE		        5
	BYTE	W02
	BYTE	W03
	BYTE		N05     Bn4   v012
	BYTE	W02
	BYTE		MOD     4
	BYTE	W02
	BYTE	W02
	BYTE		N05     As4   v008
	BYTE	W01
	BYTE	W02
	BYTE		MOD     3
	BYTE	W01
	BYTE	W04
	BYTE	W02
	BYTE		        2
	BYTE	W01
	BYTE	W03
	BYTE	W02
	BYTE		PAN     c_v+52
	BYTE	W01
	BYTE		        c_v+41
	BYTE		MOD     1
	BYTE		PAN     c_v+30
	BYTE	W01
// 011   ----------------------------------------
	BYTE	W96
	BYTE	GoTo
	 POIN2	GharnefSong_2_B1
GharnefSong_2_B2:
// 012   ----------------------------------------
	BYTE	FINE

//**************** Track 3 (Midi-Chn.3) ****************//

GharnefSong_3:
	BYTE	KEYSH   GharnefSong_key+0
GharnefSong_3_B1:
// 000   ----------------------------------------
	BYTE		VOICE   48
	BYTE		VOL     117*GharnefSong_mvl/mxv
	BYTE		PAN     c_v+24
	BYTE		N88     Cn4   v116
	BYTE	W17
	BYTE	W03
	BYTE	W03
	BYTE	W03
	BYTE	W03
	BYTE	W03
	BYTE	W03
	BYTE	W03
	BYTE	W03
	BYTE	W03
	BYTE	W03
	BYTE	W03
	BYTE	W03
	BYTE	W03
	BYTE	W03
	BYTE	W03
	BYTE	W03
	BYTE	W03
	BYTE	W03
	BYTE	W03
	BYTE	W02
	BYTE	W14
	BYTE		N92     Cn4   v104
	BYTE	W06
// 001   ----------------------------------------
GharnefSong_3_001:
	BYTE	W40
	BYTE	W03
	BYTE	W03
	BYTE	W03
	BYTE	W03
	BYTE	W03
	BYTE	W03
	BYTE	W03
	BYTE	W03
	BYTE	W03
	BYTE	W03
	BYTE	W03
	BYTE	W03
	BYTE	W03
	BYTE	W03
	BYTE	W03
	BYTE	W03
	BYTE	W02
	BYTE		TIE     Cn4   v100
	BYTE	W01
	BYTE	W05
	BYTE	PEND
// 002   ----------------------------------------
GharnefSong_3_002:
	BYTE	W09
	BYTE	W10
	BYTE	W10
	BYTE	W06
	BYTE	W10
	BYTE	W07
	BYTE	W07
	BYTE	W06
	BYTE	W07
	BYTE	W03
	BYTE	W07
	BYTE	W03
	BYTE	W04
	BYTE	W06
	BYTE	W01
	BYTE	PEND
// 003   ----------------------------------------
GharnefSong_3_003:
	BYTE	W03
	BYTE	W03
	BYTE	W03
	BYTE	W04
	BYTE	W03
	BYTE	W03
	BYTE	W04
	BYTE	W03
	BYTE	W03
	BYTE	W04
	BYTE	W03
	BYTE	W03
	BYTE	W03
	BYTE	W04
	BYTE	W03
	BYTE	W03
	BYTE	W04
	BYTE	W03
	BYTE	W03
	BYTE	W02
	BYTE	W28
	BYTE	W01
	BYTE	PEND
	BYTE		EOT     Cn4 
	BYTE	W03
// 004   ----------------------------------------
	BYTE		N88     Cn4   v116
	BYTE	W17
	BYTE	W03
	BYTE	W03
	BYTE	W03
	BYTE	W03
	BYTE	W03
	BYTE	W03
	BYTE	W03
	BYTE	W03
	BYTE	W03
	BYTE	W03
	BYTE	W03
	BYTE	W03
	BYTE	W03
	BYTE	W03
	BYTE	W03
	BYTE	W03
	BYTE	W03
	BYTE	W03
	BYTE	W03
	BYTE	W02
	BYTE	W14
	BYTE		N92     Cn4   v104
	BYTE	W06
// 005   ----------------------------------------
	BYTE	PATT
	 POIN2	GharnefSong_3_001
// 006   ----------------------------------------
	BYTE	PATT
	 POIN2	GharnefSong_3_002
// 007   ----------------------------------------
	BYTE	PATT
	 POIN2	GharnefSong_3_003
	BYTE		EOT     Cn4 
	BYTE	W03
// 008   ----------------------------------------
	BYTE		N88     Cn4   v104
	BYTE	W17
	BYTE	W03
	BYTE	W03
	BYTE	W03
	BYTE	W03
	BYTE	W03
	BYTE	W03
	BYTE	W03
	BYTE	W03
	BYTE	W03
	BYTE	W03
	BYTE	W03
	BYTE	W03
	BYTE	W03
	BYTE	W03
	BYTE	W03
	BYTE	W03
	BYTE	W03
	BYTE	W03
	BYTE	W03
	BYTE	W02
	BYTE	W14
	BYTE		N92     Cn4   v092
	BYTE	W06
// 009   ----------------------------------------
	BYTE	W40
	BYTE	W03
	BYTE	W03
	BYTE	W03
	BYTE	W03
	BYTE	W03
	BYTE	W03
	BYTE	W03
	BYTE	W03
	BYTE	W03
	BYTE	W03
	BYTE	W03
	BYTE	W03
	BYTE	W03
	BYTE	W03
	BYTE	W03
	BYTE	W03
	BYTE	W02
	BYTE		TIE     Cn4   v088
	BYTE	W01
	BYTE	W05
// 010   ----------------------------------------
	BYTE	PATT
	 POIN2	GharnefSong_3_002
// 011   ----------------------------------------
	BYTE	PATT
	 POIN2	GharnefSong_3_003
	BYTE		EOT     Cn4 
	BYTE	W03
	BYTE	GoTo
	 POIN2	GharnefSong_3_B1
GharnefSong_3_B2:
// 012   ----------------------------------------
	BYTE	FINE

//**************** Track 4 (Midi-Chn.4) ****************//

GharnefSong_4:
	BYTE	KEYSH   GharnefSong_key+0
GharnefSong_4_B1:
// 000   ----------------------------------------
	BYTE		VOICE   40
	BYTE		MOD     12
	BYTE		VOL     127*GharnefSong_mvl/mxv
	BYTE		PAN     c_v+0
	BYTE		        c_v-1
	BYTE		N92     Fn1   v100
	BYTE		N92     Fn2 
	BYTE		TIE     Cn3 
	BYTE	W01
	BYTE		PAN     c_v-3
	BYTE	W01
	BYTE		        c_v-4
	BYTE	W01
	BYTE		        c_v-6
	BYTE	W01
	BYTE		        c_v-7
	BYTE	W01
	BYTE		        c_v-9
	BYTE	W01
	BYTE		        c_v-11
	BYTE	W01
	BYTE		        c_v-12
	BYTE	W01
	BYTE		        c_v-14
	BYTE	W01
	BYTE		        c_v-15
	BYTE	W01
	BYTE		        c_v-17
	BYTE	W01
	BYTE		        c_v-19
	BYTE	W01
	BYTE		        c_v-20
	BYTE	W01
	BYTE		        c_v-22
	BYTE	W01
	BYTE		        c_v-23
	BYTE	W01
	BYTE		        c_v-24
	BYTE		        c_v-25
	BYTE	W01
	BYTE		        c_v-27
	BYTE	W01
	BYTE		        c_v-28
	BYTE	W01
	BYTE		        c_v-30
	BYTE	W01
	BYTE		        c_v-31
	BYTE	W01
	BYTE		        c_v-33
	BYTE	W01
	BYTE		        c_v-35
	BYTE	W01
	BYTE		        c_v-36
	BYTE	W01
	BYTE		        c_v-38
	BYTE	W01
	BYTE		        c_v-39
	BYTE	W01
	BYTE		        c_v-41
	BYTE	W01
	BYTE		        c_v-43
	BYTE	W01
	BYTE		        c_v-44
	BYTE	W01
	BYTE		        c_v-46
	BYTE	W01
	BYTE		        c_v-47
	BYTE	W01
	BYTE		        c_v-48
	BYTE		        c_v-49
	BYTE	W01
	BYTE		        c_v-51
	BYTE	W01
	BYTE		        c_v-52
	BYTE	W01
	BYTE		        c_v-54
	BYTE	W01
	BYTE		        c_v-55
	BYTE	W01
	BYTE		        c_v-57
	BYTE	W01
	BYTE		        c_v-59
	BYTE	W01
	BYTE		        c_v-60
	BYTE	W01
	BYTE		        c_v-62
	BYTE	W01
	BYTE		        c_v-63
	BYTE	W01
	BYTE		        c_v-64
	BYTE	W01
	BYTE		        c_v-62
	BYTE	W01
	BYTE		        c_v-61
	BYTE	W01
	BYTE		        c_v-59
	BYTE	W01
	BYTE		        c_v-57
	BYTE	W01
	BYTE		        c_v-56
	BYTE	W01
	BYTE		        c_v-54
	BYTE	W01
	BYTE		        c_v-52
	BYTE	W01
	BYTE		        c_v-51
	BYTE	W01
	BYTE		        c_v-49
	BYTE	W01
	BYTE		        c_v-47
	BYTE	W01
	BYTE		        c_v-46
	BYTE	W01
	BYTE		        c_v-44
	BYTE	W01
	BYTE		        c_v-42
	BYTE	W01
	BYTE		        c_v-41
	BYTE	W01
	BYTE		        c_v-39
	BYTE	W01
	BYTE		        c_v-38
	BYTE	W01
	BYTE		        c_v-37
	BYTE	W01
	BYTE		        c_v-35
	BYTE	W01
	BYTE		        c_v-33
	BYTE	W01
	BYTE		        c_v-32
	BYTE	W01
	BYTE		        c_v-30
	BYTE	W01
	BYTE		        c_v-28
	BYTE	W01
	BYTE		        c_v-27
	BYTE	W01
	BYTE		        c_v-25
	BYTE	W01
	BYTE		        c_v-23
	BYTE	W01
	BYTE		        c_v-22
	BYTE	W01
	BYTE		        c_v-20
	BYTE	W01
	BYTE		        c_v-18
	BYTE	W01
	BYTE		        c_v-17
	BYTE	W01
	BYTE		        c_v-15
	BYTE	W01
	BYTE		        c_v-14
	BYTE	W01
	BYTE		        c_v-13
	BYTE	W01
	BYTE		        c_v-11
	BYTE	W01
	BYTE		        c_v-9
	BYTE	W01
	BYTE		        c_v-8
	BYTE	W01
	BYTE		        c_v-6
	BYTE	W01
	BYTE		        c_v-4
	BYTE	W01
	BYTE		        c_v-3
	BYTE	W01
	BYTE		        c_v-1
	BYTE	W01
	BYTE		        c_v+1
	BYTE	W01
	BYTE		        c_v+2
	BYTE	W01
	BYTE		        c_v+4
	BYTE	W01
	BYTE		        c_v+6
	BYTE	W01
	BYTE		        c_v+7
	BYTE	W01
	BYTE		        c_v+9
	BYTE	W01
	BYTE		        c_v+11
	BYTE	W01
	BYTE		        c_v+12
	BYTE	W01
	BYTE		        c_v+13
	BYTE	W01
	BYTE		        c_v+15
	BYTE	W01
	BYTE		        c_v+16
	BYTE	W01
	BYTE		        c_v+18
	BYTE	W01
	BYTE		        c_v+20
	BYTE	W01
	BYTE		        c_v+21
	BYTE	W01
	BYTE		        c_v+23
	BYTE	W01
	BYTE		        c_v+25
	BYTE	W01
// 001   ----------------------------------------
	BYTE		        c_v+26
	BYTE		N92     Fs1 
	BYTE		N92     Fs2 
	BYTE	W01
	BYTE		PAN     c_v+28
	BYTE	W01
	BYTE		        c_v+29
	BYTE		        c_v+30
	BYTE	W01
	BYTE		        c_v+31
	BYTE	W01
	BYTE		        c_v+33
	BYTE	W01
	BYTE		        c_v+35
	BYTE	W01
	BYTE		        c_v+36
	BYTE	W01
	BYTE		        c_v+37
	BYTE	W01
	BYTE		        c_v+39
	BYTE	W01
	BYTE		        c_v+40
	BYTE	W01
	BYTE		        c_v+42
	BYTE	W01
	BYTE		        c_v+44
	BYTE	W01
	BYTE		        c_v+45
	BYTE	W01
	BYTE		        c_v+47
	BYTE	W01
	BYTE		        c_v+49
	BYTE	W01
	BYTE		        c_v+50
	BYTE	W01
	BYTE		        c_v+52
	BYTE	W01
	BYTE		        c_v+53
	BYTE		        c_v+54
	BYTE	W01
	BYTE		        c_v+55
	BYTE	W01
	BYTE		        c_v+57
	BYTE	W01
	BYTE		        c_v+59
	BYTE	W01
	BYTE		        c_v+60
	BYTE	W01
	BYTE		        c_v+62
	BYTE	W01
	BYTE		        c_v+63
	BYTE	W01
	BYTE		        c_v+61
	BYTE	W01
	BYTE		        c_v+60
	BYTE	W01
	BYTE		        c_v+58
	BYTE	W01
	BYTE		        c_v+56
	BYTE	W01
	BYTE		        c_v+54
	BYTE	W01
	BYTE		        c_v+53
	BYTE	W01
	BYTE		        c_v+51
	BYTE	W01
	BYTE		        c_v+49
	BYTE	W01
	BYTE		        c_v+48
	BYTE		        c_v+47
	BYTE	W01
	BYTE		        c_v+46
	BYTE	W01
	BYTE		        c_v+44
	BYTE	W01
	BYTE		        c_v+42
	BYTE	W01
	BYTE		        c_v+41
	BYTE	W01
	BYTE		        c_v+39
	BYTE	W01
	BYTE		        c_v+37
	BYTE	W01
	BYTE		        c_v+35
	BYTE	W01
	BYTE		        c_v+34
	BYTE	W01
	BYTE		        c_v+32
	BYTE	W01
	BYTE		        c_v+30
	BYTE	W01
	BYTE		        c_v+28
	BYTE	W01
	BYTE		        c_v+27
	BYTE	W01
	BYTE		        c_v+25
	BYTE	W01
	BYTE		        c_v+23
	BYTE	W01
	BYTE		        c_v+21
	BYTE	W01
	BYTE		        c_v+20
	BYTE	W01
	BYTE		        c_v+18
	BYTE	W01
	BYTE		        c_v+16
	BYTE	W01
	BYTE		        c_v+14
	BYTE	W01
	BYTE		        c_v+13
	BYTE	W01
	BYTE		        c_v+12
	BYTE		        c_v+11
	BYTE	W01
	BYTE		        c_v+9
	BYTE	W01
	BYTE		        c_v+7
	BYTE	W01
	BYTE		        c_v+6
	BYTE	W01
	BYTE		        c_v+4
	BYTE	W01
	BYTE		        c_v+2
	BYTE	W01
	BYTE		        c_v+1
	BYTE	W01
	BYTE		        c_v-1
	BYTE	W01
	BYTE		        c_v-3
	BYTE	W01
	BYTE		        c_v-5
	BYTE	W01
	BYTE		        c_v-6
	BYTE	W01
	BYTE		        c_v-8
	BYTE	W01
	BYTE		        c_v-10
	BYTE	W01
	BYTE		        c_v-12
	BYTE	W01
	BYTE		        c_v-13
	BYTE	W01
	BYTE		        c_v-14
	BYTE		        c_v-15
	BYTE	W01
	BYTE		        c_v-17
	BYTE	W01
	BYTE		        c_v-19
	BYTE	W01
	BYTE		        c_v-20
	BYTE	W01
	BYTE		        c_v-22
	BYTE	W01
	BYTE		        c_v-23
	BYTE		        c_v-24
	BYTE	W01
	BYTE		        c_v-26
	BYTE	W01
	BYTE		        c_v-27
	BYTE	W01
	BYTE		        c_v-29
	BYTE	W01
	BYTE		        c_v-31
	BYTE	W01
	BYTE		        c_v-33
	BYTE	W01
	BYTE		        c_v-34
	BYTE	W01
	BYTE		        c_v-36
	BYTE	W01
	BYTE		        c_v-38
	BYTE	W01
	BYTE		        c_v-39
	BYTE	W01
	BYTE		        c_v-40
	BYTE		        c_v-41
	BYTE	W01
	BYTE		        c_v-43
	BYTE	W01
	BYTE		        c_v-45
	BYTE	W01
	BYTE		        c_v-46
	BYTE	W01
	BYTE		        c_v-48
	BYTE	W01
	BYTE		        c_v-49
	BYTE		        c_v-50
	BYTE	W01
	BYTE		        c_v-52
	BYTE	W01
	BYTE		        c_v-53
	BYTE	W01
	BYTE		        c_v-55
	BYTE	W01
	BYTE		        c_v-57
	BYTE	W01
	BYTE		        c_v-59
	BYTE	W01
	BYTE		        c_v-60
	BYTE	W01
	BYTE		        c_v-62
	BYTE	W01
// 002   ----------------------------------------
	BYTE		        c_v-64
	BYTE		TIE     Fn1 
	BYTE		TIE     Gn2 
	BYTE	W02
	BYTE		PAN     c_v-62
	BYTE	W01
	BYTE		        c_v-61
	BYTE	W01
	BYTE		        c_v-59
	BYTE	W01
	BYTE		        c_v-58
	BYTE	W01
	BYTE		        c_v-56
	BYTE	W01
	BYTE		        c_v-54
	BYTE	W01
	BYTE		        c_v-53
	BYTE	W01
	BYTE		        c_v-51
	BYTE	W01
	BYTE		        c_v-50
	BYTE	W01
	BYTE		        c_v-48
	BYTE	W01
	BYTE		        c_v-47
	BYTE	W01
	BYTE		        c_v-45
	BYTE	W01
	BYTE		        c_v-44
	BYTE	W01
	BYTE		        c_v-42
	BYTE	W01
	BYTE		        c_v-41
	BYTE	W01
	BYTE		        c_v-39
	BYTE	W01
	BYTE		        c_v-38
	BYTE	W01
	BYTE		        c_v-36
	BYTE	W01
	BYTE		        c_v-34
	BYTE	W01
	BYTE		        c_v-33
	BYTE	W01
	BYTE		        c_v-31
	BYTE	W01
	BYTE		        c_v-30
	BYTE	W01
	BYTE		        c_v-28
	BYTE	W01
	BYTE		        c_v-27
	BYTE	W01
	BYTE		        c_v-25
	BYTE	W01
	BYTE		        c_v-24
	BYTE	W01
	BYTE		        c_v-22
	BYTE	W01
	BYTE		        c_v-21
	BYTE	W01
	BYTE		        c_v-19
	BYTE	W01
	BYTE		        c_v-18
	BYTE	W01
	BYTE		        c_v-16
	BYTE	W01
	BYTE		        c_v-14
	BYTE	W01
	BYTE		        c_v-13
	BYTE	W01
	BYTE		        c_v-11
	BYTE	W01
	BYTE		        c_v-10
	BYTE	W01
	BYTE		        c_v-8
	BYTE	W02
	BYTE		        c_v-6
	BYTE	W01
	BYTE		        c_v-5
	BYTE	W01
	BYTE		        c_v-3
	BYTE	W01
	BYTE		        c_v-2
	BYTE	W01
	BYTE		        c_v+0
	BYTE	W01
	BYTE		        c_v+1
	BYTE	W01
	BYTE		        c_v+3
	BYTE	W01
	BYTE		        c_v+5
	BYTE	W01
	BYTE		        c_v+6
	BYTE	W01
	BYTE		        c_v+8
	BYTE	W01
	BYTE		        c_v+9
	BYTE	W01
	BYTE		        c_v+11
	BYTE	W01
	BYTE		        c_v+12
	BYTE	W01
	BYTE		        c_v+14
	BYTE	W01
	BYTE		        c_v+15
	BYTE	W01
	BYTE		        c_v+17
	BYTE	W01
	BYTE		        c_v+18
	BYTE	W01
	BYTE		        c_v+20
	BYTE	W01
	BYTE		        c_v+21
	BYTE	W01
	BYTE		        c_v+23
	BYTE	W01
	BYTE		        c_v+25
	BYTE	W01
	BYTE		        c_v+26
	BYTE	W01
	BYTE		        c_v+28
	BYTE	W01
	BYTE		        c_v+29
	BYTE	W01
	BYTE		        c_v+31
	BYTE	W01
	BYTE		        c_v+32
	BYTE	W01
	BYTE		        c_v+34
	BYTE	W01
	BYTE		        c_v+35
	BYTE	W01
	BYTE		        c_v+37
	BYTE	W01
	BYTE		        c_v+38
	BYTE	W01
	BYTE		        c_v+40
	BYTE	W01
	BYTE		        c_v+41
	BYTE	W01
	BYTE		        c_v+43
	BYTE	W01
	BYTE		        c_v+45
	BYTE	W01
	BYTE		        c_v+46
	BYTE	W01
	BYTE		        c_v+48
	BYTE	W01
	BYTE		        c_v+49
	BYTE	W01
	BYTE		        c_v+50
	BYTE	W01
	BYTE		        c_v+51
	BYTE	W01
	BYTE		        c_v+53
	BYTE	W01
	BYTE		        c_v+54
	BYTE	W01
	BYTE		        c_v+56
	BYTE	W01
	BYTE		        c_v+57
	BYTE	W01
	BYTE		        c_v+58
	BYTE		        c_v+59
	BYTE	W01
	BYTE		        c_v+60
	BYTE	W01
	BYTE		        c_v+63
	BYTE	W02
	BYTE		        c_v+61
	BYTE	W01
	BYTE		        c_v+60
	BYTE	W01
	BYTE		        c_v+58
	BYTE	W01
	BYTE		        c_v+57
	BYTE	W01
	BYTE		        c_v+55
	BYTE	W01
	BYTE		        c_v+53
	BYTE	W01
	BYTE		        c_v+52
	BYTE	W01
	BYTE		        c_v+50
	BYTE	W01
	BYTE		        c_v+49
	BYTE	W01
	BYTE		        c_v+47
	BYTE	W01
// 003   ----------------------------------------
	BYTE		        c_v+46
	BYTE	W01
	BYTE		        c_v+44
	BYTE	W01
	BYTE		        c_v+43
	BYTE	W01
	BYTE		        c_v+41
	BYTE	W01
	BYTE		        c_v+40
	BYTE	W01
	BYTE		        c_v+38
	BYTE	W01
	BYTE		        c_v+37
	BYTE	W01
	BYTE		        c_v+36
	BYTE		        c_v+35
	BYTE	W01
	BYTE		        c_v+33
	BYTE	W01
	BYTE		        c_v+32
	BYTE	W01
	BYTE		        c_v+30
	BYTE	W01
	BYTE		        c_v+29
	BYTE	W01
	BYTE		        c_v+27
	BYTE	W01
	BYTE		        c_v+26
	BYTE	W01
	BYTE		        c_v+24
	BYTE	W01
	BYTE		        c_v+23
	BYTE	W01
	BYTE		        c_v+21
	BYTE	W01
	BYTE		        c_v+20
	BYTE	W01
	BYTE		        c_v+18
	BYTE	W01
	BYTE		        c_v+17
	BYTE	W01
	BYTE		        c_v+15
	BYTE	W01
	BYTE		        c_v+13
	BYTE	W01
	BYTE		        c_v+12
	BYTE	W01
	BYTE		        c_v+10
	BYTE	W01
	BYTE		        c_v+9
	BYTE	W01
	BYTE		        c_v+7
	BYTE	W01
	BYTE		        c_v+6
	BYTE	W01
	BYTE		        c_v+4
	BYTE	W01
	BYTE		        c_v+3
	BYTE	W01
	BYTE		        c_v+1
	BYTE	W01
	BYTE		        c_v+0
	BYTE	W01
	BYTE		        c_v-2
	BYTE	W01
	BYTE		        c_v-3
	BYTE	W01
	BYTE		        c_v-4
	BYTE		        c_v-5
	BYTE	W01
	BYTE		        c_v-7
	BYTE	W01
	BYTE		        c_v-8
	BYTE	W01
	BYTE		        c_v-10
	BYTE	W01
	BYTE		        c_v-11
	BYTE	W01
	BYTE		        c_v-12
	BYTE		        c_v-13
	BYTE	W01
	BYTE		        c_v-14
	BYTE	W01
	BYTE		        c_v-16
	BYTE	W01
	BYTE		        c_v-17
	BYTE	W01
	BYTE		        c_v-19
	BYTE	W01
	BYTE		        c_v-20
	BYTE	W01
	BYTE		        c_v-22
	BYTE	W01
	BYTE		        c_v-23
	BYTE	W01
	BYTE		        c_v-25
	BYTE	W01
	BYTE		        c_v-27
	BYTE	W01
	BYTE		        c_v-28
	BYTE	W01
	BYTE		        c_v-30
	BYTE	W01
	BYTE		        c_v-31
	BYTE	W01
	BYTE		        c_v-33
	BYTE	W01
	BYTE		        c_v-34
	BYTE	W01
	BYTE		        c_v-36
	BYTE	W01
	BYTE		        c_v-37
	BYTE	W01
	BYTE		        c_v-39
	BYTE	W01
	BYTE		        c_v-40
	BYTE	W01
	BYTE		        c_v-42
	BYTE	W01
	BYTE		        c_v-43
	BYTE	W01
	BYTE		        c_v-44
	BYTE		        c_v-45
	BYTE	W01
	BYTE		        c_v-47
	BYTE	W01
	BYTE		        c_v-48
	BYTE	W01
	BYTE		        c_v-50
	BYTE	W01
	BYTE		        c_v-51
	BYTE	W01
	BYTE		        c_v-52
	BYTE		        c_v-53
	BYTE	W01
	BYTE		        c_v-54
	BYTE	W01
	BYTE		        c_v-56
	BYTE	W01
	BYTE		        c_v-57
	BYTE	W01
	BYTE		        c_v-59
	BYTE	W01
	BYTE		        c_v-60
	BYTE	W01
	BYTE		        c_v-61
	BYTE		        c_v-62
	BYTE	W01
	BYTE		        c_v-63
	BYTE	W01
	BYTE		        c_v-64
	BYTE	W01
	BYTE		        c_v-62
	BYTE	W01
	BYTE		        c_v-61
	BYTE	W01
	BYTE		        c_v-60
	BYTE		        c_v-59
	BYTE	W01
	BYTE		        c_v-57
	BYTE	W01
	BYTE		        c_v-56
	BYTE	W01
	BYTE		        c_v-54
	BYTE	W01
	BYTE		        c_v-52
	BYTE	W01
	BYTE		        c_v-51
	BYTE	W01
	BYTE		        c_v-49
	BYTE	W01
	BYTE		        c_v-47
	BYTE	W01
	BYTE		        c_v-46
	BYTE	W01
	BYTE		        c_v-44
	BYTE	W01
	BYTE		        c_v-42
	BYTE	W01
	BYTE		        c_v-41
	BYTE	W01
	BYTE		        c_v-39
	BYTE	W01
	BYTE		        c_v-37
	BYTE	W01
	BYTE		        c_v-36
	BYTE	W01
	BYTE		        c_v-34
	BYTE	W01
	BYTE		        c_v-32
	BYTE	W01
	BYTE		        c_v-31
	BYTE	W01
	BYTE		        c_v-29
	BYTE	W01
	BYTE		        c_v-27
	BYTE	W01
	BYTE		EOT     Fn1 
	BYTE		        Gn2 
	BYTE		        Cn3 
	BYTE	W01
// 004   ----------------------------------------
	BYTE		PAN     c_v-25
	BYTE		N92     Fn1 
	BYTE		N92     Fn2 
	BYTE		TIE     Cn3 
	BYTE	W01
	BYTE		PAN     c_v-23
	BYTE	W01
	BYTE		        c_v-22
	BYTE	W01
	BYTE		        c_v-20
	BYTE	W01
	BYTE		        c_v-18
	BYTE	W01
	BYTE		        c_v-17
	BYTE	W01
	BYTE		        c_v-15
	BYTE	W01
	BYTE		        c_v-13
	BYTE	W01
	BYTE		        c_v-12
	BYTE	W01
	BYTE		        c_v-10
	BYTE	W01
	BYTE		        c_v-8
	BYTE	W01
	BYTE		        c_v-7
	BYTE	W01
	BYTE		        c_v-5
	BYTE	W01
	BYTE		        c_v-3
	BYTE	W01
	BYTE		        c_v-2
	BYTE	W01
	BYTE		        c_v+0
	BYTE	W01
	BYTE		        c_v+2
	BYTE	W01
	BYTE		        c_v+3
	BYTE	W01
	BYTE		        c_v+5
	BYTE	W01
	BYTE		        c_v+7
	BYTE	W01
	BYTE		        c_v+8
	BYTE	W01
	BYTE		        c_v+10
	BYTE	W01
	BYTE		        c_v+11
	BYTE	W01
	BYTE		        c_v+12
	BYTE	W01
	BYTE		        c_v+14
	BYTE	W01
	BYTE		        c_v+16
	BYTE	W01
	BYTE		        c_v+17
	BYTE	W01
	BYTE		        c_v+19
	BYTE	W01
	BYTE		        c_v+20
	BYTE		        c_v+21
	BYTE	W01
	BYTE		        c_v+22
	BYTE	W01
	BYTE		        c_v+24
	BYTE	W01
	BYTE		        c_v+26
	BYTE	W01
	BYTE		        c_v+27
	BYTE	W01
	BYTE		        c_v+28
	BYTE		        c_v+29
	BYTE	W01
	BYTE		        c_v+31
	BYTE	W01
	BYTE		        c_v+32
	BYTE	W01
	BYTE		        c_v+34
	BYTE	W01
	BYTE		        c_v+36
	BYTE	W01
	BYTE		        c_v+37
	BYTE	W01
	BYTE		        c_v+39
	BYTE	W01
	BYTE		        c_v+41
	BYTE	W01
	BYTE		        c_v+42
	BYTE	W01
	BYTE		        c_v+44
	BYTE	W01
	BYTE		        c_v+46
	BYTE	W01
	BYTE		        c_v+47
	BYTE	W01
	BYTE		        c_v+48
	BYTE	W01
	BYTE		        c_v+50
	BYTE	W01
	BYTE		        c_v+51
	BYTE	W01
	BYTE		        c_v+53
	BYTE	W01
	BYTE		        c_v+55
	BYTE	W01
	BYTE		        c_v+56
	BYTE	W01
	BYTE		        c_v+58
	BYTE	W01
	BYTE		        c_v+59
	BYTE		        c_v+60
	BYTE	W01
	BYTE		        c_v+61
	BYTE	W01
	BYTE		        c_v+63
	BYTE	W01
	BYTE		        c_v+61
	BYTE	W01
	BYTE		        c_v+60
	BYTE	W01
	BYTE		        c_v+58
	BYTE	W01
	BYTE		        c_v+56
	BYTE	W01
	BYTE		        c_v+55
	BYTE	W01
	BYTE		        c_v+53
	BYTE	W01
	BYTE		        c_v+52
	BYTE		        c_v+51
	BYTE	W01
	BYTE		        c_v+49
	BYTE	W01
	BYTE		        c_v+48
	BYTE	W01
	BYTE		        c_v+46
	BYTE	W01
	BYTE		        c_v+44
	BYTE	W01
	BYTE		        c_v+43
	BYTE		        c_v+42
	BYTE	W01
	BYTE		        c_v+41
	BYTE	W01
	BYTE		        c_v+39
	BYTE	W01
	BYTE		        c_v+37
	BYTE	W01
	BYTE		        c_v+35
	BYTE	W01
	BYTE		        c_v+34
	BYTE	W01
	BYTE		        c_v+32
	BYTE	W01
	BYTE		        c_v+30
	BYTE	W01
	BYTE		        c_v+28
	BYTE	W01
	BYTE		        c_v+27
	BYTE	W01
	BYTE		        c_v+26
	BYTE	W01
	BYTE		        c_v+24
	BYTE	W01
	BYTE		        c_v+22
	BYTE	W01
	BYTE		        c_v+21
	BYTE	W01
	BYTE		        c_v+20
	BYTE		        c_v+19
	BYTE	W01
	BYTE		        c_v+17
	BYTE	W01
	BYTE		        c_v+16
	BYTE	W01
	BYTE		        c_v+14
	BYTE	W01
	BYTE		        c_v+12
	BYTE	W01
	BYTE		        c_v+10
	BYTE	W01
	BYTE		        c_v+9
	BYTE	W01
	BYTE		        c_v+7
	BYTE	W01
	BYTE		        c_v+5
	BYTE	W01
	BYTE		        c_v+3
	BYTE	W01
	BYTE		        c_v+2
	BYTE	W01
	BYTE		        c_v+0
	BYTE	W01
	BYTE		        c_v-2
	BYTE	W01
	BYTE		        c_v-4
	BYTE	W01
	BYTE		        c_v-5
	BYTE	W01
	BYTE		        c_v-7
	BYTE	W01
// 005   ----------------------------------------
	BYTE		        c_v-9
	BYTE		N92     Fs1 
	BYTE		N92     Fs2 
	BYTE	W01
	BYTE		PAN     c_v-11
	BYTE	W01
	BYTE		        c_v-12
	BYTE	W01
	BYTE		        c_v-13
	BYTE	W01
	BYTE		        c_v-15
	BYTE	W01
	BYTE		        c_v-17
	BYTE	W01
	BYTE		        c_v-18
	BYTE	W01
	BYTE		        c_v-20
	BYTE	W01
	BYTE		        c_v-22
	BYTE	W01
	BYTE		        c_v-23
	BYTE	W01
	BYTE		        c_v-25
	BYTE	W01
	BYTE		        c_v-27
	BYTE	W01
	BYTE		        c_v-29
	BYTE	W01
	BYTE		        c_v-30
	BYTE	W01
	BYTE		        c_v-32
	BYTE	W01
	BYTE		        c_v-34
	BYTE	W01
	BYTE		        c_v-36
	BYTE	W01
	BYTE		        c_v-37
	BYTE	W01
	BYTE		        c_v-39
	BYTE	W01
	BYTE		        c_v-41
	BYTE	W01
	BYTE		        c_v-43
	BYTE	W01
	BYTE		        c_v-44
	BYTE	W01
	BYTE		        c_v-45
	BYTE		        c_v-46
	BYTE	W01
	BYTE		        c_v-48
	BYTE	W01
	BYTE		        c_v-50
	BYTE	W02
	BYTE		        c_v-52
	BYTE	W01
	BYTE		        c_v-54
	BYTE	W01
	BYTE		        c_v-56
	BYTE	W01
	BYTE		        c_v-57
	BYTE	W01
	BYTE		        c_v-59
	BYTE	W01
	BYTE		        c_v-60
	BYTE		        c_v-61
	BYTE	W01
	BYTE		        c_v-62
	BYTE	W01
	BYTE		        c_v-64
	BYTE	W01
	BYTE		        c_v-63
	BYTE	W01
	BYTE		        c_v-61
	BYTE	W01
	BYTE		        c_v-60
	BYTE	W01
	BYTE		        c_v-58
	BYTE	W01
	BYTE		        c_v-57
	BYTE	W01
	BYTE		        c_v-55
	BYTE	W01
	BYTE		        c_v-54
	BYTE	W01
	BYTE		        c_v-53
	BYTE		        c_v-52
	BYTE	W01
	BYTE		        c_v-50
	BYTE	W01
	BYTE		        c_v-49
	BYTE	W01
	BYTE		        c_v-47
	BYTE	W01
	BYTE		        c_v-46
	BYTE	W01
	BYTE		        c_v-44
	BYTE	W01
	BYTE		        c_v-43
	BYTE	W01
	BYTE		        c_v-41
	BYTE	W01
	BYTE		        c_v-40
	BYTE	W01
	BYTE		        c_v-39
	BYTE		        c_v-38
	BYTE	W01
	BYTE		        c_v-37
	BYTE	W01
	BYTE		        c_v-35
	BYTE	W01
	BYTE		        c_v-34
	BYTE	W01
	BYTE		        c_v-32
	BYTE	W01
	BYTE		        c_v-31
	BYTE		        c_v-30
	BYTE	W01
	BYTE		        c_v-29
	BYTE	W01
	BYTE		        c_v-27
	BYTE	W01
	BYTE		        c_v-26
	BYTE	W01
	BYTE		        c_v-24
	BYTE	W01
	BYTE		        c_v-23
	BYTE	W01
	BYTE		        c_v-21
	BYTE	W01
	BYTE		        c_v-20
	BYTE	W01
	BYTE		        c_v-18
	BYTE	W01
	BYTE		        c_v-17
	BYTE	W01
	BYTE		        c_v-15
	BYTE	W01
	BYTE		        c_v-14
	BYTE	W01
	BYTE		        c_v-12
	BYTE	W01
	BYTE		        c_v-10
	BYTE	W01
	BYTE		        c_v-9
	BYTE	W01
	BYTE		        c_v-7
	BYTE	W01
	BYTE		        c_v-6
	BYTE	W01
	BYTE		        c_v-4
	BYTE	W01
	BYTE		        c_v-3
	BYTE	W01
	BYTE		        c_v-2
	BYTE		        c_v-1
	BYTE	W01
	BYTE		        c_v+0
	BYTE	W01
	BYTE		        c_v+2
	BYTE	W01
	BYTE		        c_v+3
	BYTE	W01
	BYTE		        c_v+5
	BYTE	W01
	BYTE		        c_v+6
	BYTE	W01
	BYTE		        c_v+8
	BYTE	W01
	BYTE		        c_v+10
	BYTE	W01
	BYTE		        c_v+11
	BYTE	W01
	BYTE		        c_v+12
	BYTE		        c_v+13
	BYTE	W01
	BYTE		        c_v+14
	BYTE	W01
	BYTE		        c_v+15
	BYTE	W01
	BYTE		        c_v+16
	BYTE	W01
	BYTE		        c_v+18
	BYTE	W01
	BYTE		        c_v+19
	BYTE	W01
	BYTE		        c_v+21
	BYTE	W01
	BYTE		        c_v+22
	BYTE	W01
	BYTE		        c_v+24
	BYTE	W01
	BYTE		        c_v+25
	BYTE	W01
	BYTE		        c_v+26
	BYTE		        c_v+27
	BYTE	W01
	BYTE		        c_v+29
	BYTE	W01
	BYTE		        c_v+30
	BYTE	W01
// 006   ----------------------------------------
	BYTE		        c_v+32
	BYTE		TIE     Fn1 
	BYTE		TIE     Gn2 
	BYTE	W01
	BYTE		PAN     c_v+33
	BYTE	W01
	BYTE		        c_v+35
	BYTE	W01
	BYTE		        c_v+36
	BYTE	W01
	BYTE		        c_v+38
	BYTE	W01
	BYTE		        c_v+39
	BYTE	W01
	BYTE		        c_v+41
	BYTE	W01
	BYTE		        c_v+42
	BYTE	W01
	BYTE		        c_v+44
	BYTE	W01
	BYTE		        c_v+45
	BYTE	W01
	BYTE		        c_v+46
	BYTE		        c_v+47
	BYTE	W01
	BYTE		        c_v+49
	BYTE	W01
	BYTE		        c_v+50
	BYTE	W01
	BYTE		        c_v+52
	BYTE	W01
	BYTE		        c_v+53
	BYTE	W01
	BYTE		        c_v+55
	BYTE	W01
	BYTE		        c_v+56
	BYTE	W01
	BYTE		        c_v+58
	BYTE	W01
	BYTE		        c_v+59
	BYTE	W01
	BYTE		        c_v+60
	BYTE		        c_v+61
	BYTE	W01
	BYTE		        c_v+63
	BYTE	W02
	BYTE		        c_v+61
	BYTE	W01
	BYTE		        c_v+60
	BYTE	W01
	BYTE		        c_v+58
	BYTE	W01
	BYTE		        c_v+57
	BYTE	W01
	BYTE		        c_v+55
	BYTE	W01
	BYTE		        c_v+53
	BYTE	W01
	BYTE		        c_v+52
	BYTE	W01
	BYTE		        c_v+50
	BYTE	W01
	BYTE		        c_v+49
	BYTE	W01
	BYTE		        c_v+47
	BYTE	W01
	BYTE		        c_v+46
	BYTE	W01
	BYTE		        c_v+44
	BYTE	W01
	BYTE		        c_v+43
	BYTE	W01
	BYTE		        c_v+41
	BYTE	W01
	BYTE		        c_v+40
	BYTE	W01
	BYTE		        c_v+38
	BYTE	W01
	BYTE		        c_v+37
	BYTE	W01
	BYTE		        c_v+35
	BYTE	W01
	BYTE		        c_v+33
	BYTE	W01
	BYTE		        c_v+32
	BYTE	W01
	BYTE		        c_v+30
	BYTE	W01
	BYTE		        c_v+29
	BYTE	W01
	BYTE		        c_v+27
	BYTE	W01
	BYTE		        c_v+26
	BYTE	W01
	BYTE		        c_v+24
	BYTE	W01
	BYTE		        c_v+23
	BYTE	W01
	BYTE		        c_v+21
	BYTE	W01
	BYTE		        c_v+20
	BYTE	W01
	BYTE		        c_v+18
	BYTE	W01
	BYTE		        c_v+17
	BYTE	W01
	BYTE		        c_v+15
	BYTE	W01
	BYTE		        c_v+14
	BYTE		        c_v+13
	BYTE	W01
	BYTE		        c_v+12
	BYTE	W01
	BYTE		        c_v+10
	BYTE	W01
	BYTE		        c_v+9
	BYTE	W01
	BYTE		        c_v+7
	BYTE	W01
	BYTE		        c_v+6
	BYTE	W01
	BYTE		        c_v+4
	BYTE	W01
	BYTE		        c_v+3
	BYTE	W01
	BYTE		        c_v+1
	BYTE	W01
	BYTE		        c_v+0
	BYTE	W01
	BYTE		        c_v-2
	BYTE	W01
	BYTE		        c_v-3
	BYTE	W01
	BYTE		        c_v-5
	BYTE	W01
	BYTE		        c_v-6
	BYTE		        c_v-7
	BYTE	W01
	BYTE		        c_v-8
	BYTE	W01
	BYTE		        c_v-10
	BYTE	W01
	BYTE		        c_v-11
	BYTE	W01
	BYTE		        c_v-13
	BYTE	W01
	BYTE		        c_v-14
	BYTE	W01
	BYTE		        c_v-15
	BYTE		        c_v-16
	BYTE	W01
	BYTE		        c_v-17
	BYTE	W01
	BYTE		        c_v-19
	BYTE	W01
	BYTE		        c_v-20
	BYTE	W01
	BYTE		        c_v-22
	BYTE	W01
	BYTE		        c_v-23
	BYTE	W01
	BYTE		        c_v-25
	BYTE	W01
	BYTE		        c_v-27
	BYTE	W01
	BYTE		        c_v-28
	BYTE	W01
	BYTE		        c_v-30
	BYTE	W01
	BYTE		        c_v-31
	BYTE	W01
	BYTE		        c_v-33
	BYTE	W01
	BYTE		        c_v-34
	BYTE	W01
	BYTE		        c_v-36
	BYTE	W01
	BYTE		        c_v-37
	BYTE	W01
	BYTE		        c_v-39
	BYTE	W01
	BYTE		        c_v-40
	BYTE	W01
	BYTE		        c_v-42
	BYTE	W01
	BYTE		        c_v-43
	BYTE	W01
	BYTE		        c_v-45
	BYTE	W01
	BYTE		        c_v-47
	BYTE	W01
	BYTE		        c_v-48
	BYTE	W01
	BYTE		        c_v-49
	BYTE		        c_v-50
	BYTE	W01
	BYTE		        c_v-51
	BYTE	W01
// 007   ----------------------------------------
	BYTE		        c_v-53
	BYTE	W01
	BYTE		        c_v-54
	BYTE	W01
	BYTE		        c_v-56
	BYTE	W01
	BYTE		        c_v-57
	BYTE	W01
	BYTE		        c_v-58
	BYTE		        c_v-59
	BYTE	W01
	BYTE		        c_v-60
	BYTE	W01
	BYTE		        c_v-62
	BYTE	W01
	BYTE		        c_v-63
	BYTE	W01
	BYTE		        c_v-64
	BYTE	W01
	BYTE		        c_v-63
	BYTE	W01
	BYTE		        c_v-61
	BYTE	W01
	BYTE		        c_v-60
	BYTE	W01
	BYTE		        c_v-58
	BYTE	W01
	BYTE		        c_v-57
	BYTE	W01
	BYTE		        c_v-56
	BYTE		        c_v-55
	BYTE	W01
	BYTE		        c_v-54
	BYTE	W01
	BYTE		        c_v-52
	BYTE	W01
	BYTE		        c_v-51
	BYTE	W01
	BYTE		        c_v-49
	BYTE	W01
	BYTE		        c_v-48
	BYTE	W01
	BYTE		        c_v-47
	BYTE		        c_v-46
	BYTE	W01
	BYTE		        c_v-45
	BYTE	W01
	BYTE		        c_v-43
	BYTE	W01
	BYTE		        c_v-42
	BYTE	W01
	BYTE		        c_v-40
	BYTE	W01
	BYTE		        c_v-39
	BYTE	W01
	BYTE		        c_v-38
	BYTE		        c_v-37
	BYTE	W01
	BYTE		        c_v-36
	BYTE	W01
	BYTE		        c_v-35
	BYTE	W01
	BYTE		        c_v-34
	BYTE	W01
	BYTE		        c_v-32
	BYTE	W01
	BYTE		        c_v-31
	BYTE	W01
	BYTE		        c_v-30
	BYTE		        c_v-29
	BYTE	W01
	BYTE		        c_v-28
	BYTE	W01
	BYTE		        c_v-27
	BYTE	W01
	BYTE		        c_v-25
	BYTE	W01
	BYTE		        c_v-24
	BYTE	W01
	BYTE		        c_v-22
	BYTE	W01
	BYTE		        c_v-21
	BYTE	W01
	BYTE		        c_v-20
	BYTE		        c_v-19
	BYTE	W01
	BYTE		        c_v-18
	BYTE	W01
	BYTE		        c_v-16
	BYTE	W01
	BYTE		        c_v-15
	BYTE	W01
	BYTE		        c_v-13
	BYTE	W01
	BYTE		        c_v-12
	BYTE	W01
	BYTE		        c_v-11
	BYTE		        c_v-10
	BYTE	W01
	BYTE		        c_v-9
	BYTE	W01
	BYTE		        c_v-7
	BYTE	W01
	BYTE		        c_v-6
	BYTE	W01
	BYTE		        c_v-5
	BYTE	W01
	BYTE		        c_v-4
	BYTE	W01
	BYTE		        c_v-3
	BYTE		        c_v-2
	BYTE	W01
	BYTE		        c_v-1
	BYTE	W01
	BYTE		        c_v+1
	BYTE	W01
	BYTE		        c_v+2
	BYTE	W01
	BYTE		        c_v+4
	BYTE	W01
	BYTE		        c_v+5
	BYTE	W01
	BYTE		        c_v+6
	BYTE		        c_v+7
	BYTE	W01
	BYTE		        c_v+8
	BYTE	W01
	BYTE		        c_v+10
	BYTE	W01
	BYTE		        c_v+11
	BYTE	W01
	BYTE		        c_v+12
	BYTE	W01
	BYTE		        c_v+14
	BYTE	W01
	BYTE		        c_v+15
	BYTE	W01
	BYTE		        c_v+16
	BYTE		        c_v+17
	BYTE	W01
	BYTE		        c_v+18
	BYTE	W01
	BYTE		        c_v+20
	BYTE	W01
	BYTE		        c_v+21
	BYTE	W01
	BYTE		        c_v+23
	BYTE	W02
	BYTE		        c_v+24
	BYTE		        c_v+25
	BYTE	W01
	BYTE		        c_v+26
	BYTE	W01
	BYTE		        c_v+28
	BYTE	W01
	BYTE		        c_v+29
	BYTE	W01
	BYTE		        c_v+31
	BYTE	W01
	BYTE		        c_v+32
	BYTE	W01
	BYTE		        c_v+33
	BYTE		        c_v+34
	BYTE	W01
	BYTE		        c_v+35
	BYTE	W01
	BYTE		        c_v+37
	BYTE	W01
	BYTE		        c_v+38
	BYTE	W01
	BYTE		        c_v+39
	BYTE		        c_v+40
	BYTE	W01
	BYTE		        c_v+41
	BYTE	W01
	BYTE		        c_v+43
	BYTE	W01
	BYTE		        c_v+44
	BYTE	W01
	BYTE		        c_v+46
	BYTE	W01
	BYTE		        c_v+47
	BYTE	W01
	BYTE		        c_v+49
	BYTE	W01
	BYTE		        c_v+50
	BYTE	W01
	BYTE		        c_v+51
	BYTE	W01
	BYTE		        c_v+53
	BYTE	W02
	BYTE		        c_v+55
	BYTE	W01
	BYTE		        c_v+56
	BYTE	W01
	BYTE		        c_v+58
	BYTE	W01
	BYTE		        c_v+59
	BYTE	W01
	BYTE		EOT     Fn1 
	BYTE		        Gn2 
	BYTE		        Cn3 
	BYTE		PAN     c_v+61
	BYTE	W01
// 008   ----------------------------------------
	BYTE		        c_v-1
	BYTE		N92     Fn1   v076
	BYTE		N92     Fn2 
	BYTE		TIE     Cn3 
	BYTE	W01
	BYTE		PAN     c_v-3
	BYTE	W01
	BYTE		        c_v-4
	BYTE	W01
	BYTE		        c_v-6
	BYTE	W01
	BYTE		        c_v-7
	BYTE	W01
	BYTE		        c_v-9
	BYTE	W01
	BYTE		        c_v-11
	BYTE	W01
	BYTE		        c_v-12
	BYTE	W01
	BYTE		        c_v-14
	BYTE	W01
	BYTE		        c_v-15
	BYTE	W01
	BYTE		        c_v-17
	BYTE	W01
	BYTE		        c_v-19
	BYTE	W01
	BYTE		        c_v-20
	BYTE	W01
	BYTE		        c_v-22
	BYTE	W01
	BYTE		        c_v-23
	BYTE	W01
	BYTE		        c_v-25
	BYTE	W01
	BYTE		        c_v-27
	BYTE	W01
	BYTE		        c_v-28
	BYTE	W01
	BYTE		        c_v-30
	BYTE	W01
	BYTE		        c_v-31
	BYTE	W01
	BYTE		        c_v-33
	BYTE	W01
	BYTE		        c_v-35
	BYTE	W01
	BYTE		        c_v-36
	BYTE	W01
	BYTE		        c_v-38
	BYTE	W01
	BYTE		        c_v-39
	BYTE	W01
	BYTE		        c_v-41
	BYTE	W01
	BYTE		        c_v-43
	BYTE	W01
	BYTE		        c_v-44
	BYTE	W01
	BYTE		        c_v-46
	BYTE	W01
	BYTE		        c_v-47
	BYTE	W01
	BYTE		        c_v-49
	BYTE	W01
	BYTE		        c_v-51
	BYTE	W01
	BYTE		        c_v-52
	BYTE	W01
	BYTE		        c_v-54
	BYTE	W01
	BYTE		        c_v-55
	BYTE	W01
	BYTE		        c_v-57
	BYTE	W01
	BYTE		        c_v-59
	BYTE	W01
	BYTE		        c_v-60
	BYTE	W01
	BYTE		        c_v-62
	BYTE	W01
	BYTE		        c_v-63
	BYTE	W01
	BYTE		        c_v-64
	BYTE	W01
	BYTE		        c_v-62
	BYTE	W01
	BYTE		        c_v-61
	BYTE	W01
	BYTE		        c_v-59
	BYTE	W01
	BYTE		        c_v-57
	BYTE	W01
	BYTE		        c_v-56
	BYTE	W01
	BYTE		        c_v-54
	BYTE	W01
	BYTE		        c_v-52
	BYTE	W01
	BYTE		        c_v-51
	BYTE	W01
	BYTE		        c_v-49
	BYTE	W01
	BYTE		        c_v-47
	BYTE	W01
	BYTE		        c_v-46
	BYTE	W01
	BYTE		        c_v-44
	BYTE	W01
	BYTE		        c_v-42
	BYTE	W01
	BYTE		        c_v-41
	BYTE	W01
	BYTE		        c_v-39
	BYTE	W01
	BYTE		        c_v-38
	BYTE	W01
	BYTE		        c_v-37
	BYTE	W01
	BYTE		        c_v-35
	BYTE	W01
	BYTE		        c_v-33
	BYTE	W01
	BYTE		        c_v-32
	BYTE	W01
	BYTE		        c_v-30
	BYTE	W01
	BYTE		        c_v-28
	BYTE	W01
	BYTE		        c_v-27
	BYTE	W01
	BYTE		        c_v-25
	BYTE	W01
	BYTE		        c_v-23
	BYTE	W01
	BYTE		        c_v-22
	BYTE	W01
	BYTE		        c_v-20
	BYTE	W01
	BYTE		        c_v-18
	BYTE	W01
	BYTE		        c_v-17
	BYTE	W01
	BYTE		        c_v-15
	BYTE	W01
	BYTE		        c_v-14
	BYTE	W01
	BYTE		        c_v-13
	BYTE	W01
	BYTE		        c_v-11
	BYTE	W01
	BYTE		        c_v-9
	BYTE	W01
	BYTE		        c_v-8
	BYTE	W01
	BYTE		        c_v-6
	BYTE	W01
	BYTE		        c_v-4
	BYTE	W01
	BYTE		        c_v-3
	BYTE	W01
	BYTE		        c_v-1
	BYTE	W01
	BYTE		        c_v+1
	BYTE	W01
	BYTE		        c_v+2
	BYTE	W01
	BYTE		        c_v+4
	BYTE	W01
	BYTE		        c_v+6
	BYTE	W01
	BYTE		        c_v+7
	BYTE	W01
	BYTE		        c_v+9
	BYTE	W01
	BYTE		        c_v+11
	BYTE	W01
	BYTE		        c_v+12
	BYTE	W01
	BYTE		        c_v+13
	BYTE	W01
	BYTE		        c_v+15
	BYTE	W01
	BYTE		        c_v+16
	BYTE	W01
	BYTE		        c_v+18
	BYTE	W01
	BYTE		        c_v+20
	BYTE	W01
	BYTE		        c_v+21
	BYTE	W01
	BYTE		        c_v+23
	BYTE	W01
	BYTE		        c_v+25
	BYTE	W01
// 009   ----------------------------------------
	BYTE		        c_v+26
	BYTE		N92     Fs1 
	BYTE		N92     Fs2 
	BYTE	W01
	BYTE		PAN     c_v+28
	BYTE	W01
	BYTE		        c_v+30
	BYTE	W01
	BYTE		        c_v+31
	BYTE	W01
	BYTE		        c_v+33
	BYTE	W01
	BYTE		        c_v+35
	BYTE	W01
	BYTE		        c_v+36
	BYTE	W01
	BYTE		        c_v+37
	BYTE	W01
	BYTE		        c_v+39
	BYTE	W01
	BYTE		        c_v+40
	BYTE	W01
	BYTE		        c_v+42
	BYTE	W01
	BYTE		        c_v+44
	BYTE	W01
	BYTE		        c_v+45
	BYTE	W01
	BYTE		        c_v+47
	BYTE	W01
	BYTE		        c_v+49
	BYTE	W01
	BYTE		        c_v+50
	BYTE	W01
	BYTE		        c_v+52
	BYTE	W01
	BYTE		        c_v+54
	BYTE	W01
	BYTE		        c_v+55
	BYTE	W01
	BYTE		        c_v+57
	BYTE	W01
	BYTE		        c_v+59
	BYTE	W01
	BYTE		        c_v+60
	BYTE	W01
	BYTE		        c_v+62
	BYTE	W01
	BYTE		        c_v+63
	BYTE	W01
	BYTE		        c_v+61
	BYTE	W01
	BYTE		        c_v+60
	BYTE	W01
	BYTE		        c_v+58
	BYTE	W01
	BYTE		        c_v+56
	BYTE	W01
	BYTE		        c_v+54
	BYTE	W01
	BYTE		        c_v+53
	BYTE	W01
	BYTE		        c_v+51
	BYTE	W01
	BYTE		        c_v+49
	BYTE	W01
	BYTE		        c_v+47
	BYTE	W01
	BYTE		        c_v+46
	BYTE	W01
	BYTE		        c_v+44
	BYTE	W01
	BYTE		        c_v+43
	BYTE		        c_v+42
	BYTE	W01
	BYTE		        c_v+41
	BYTE	W01
	BYTE		        c_v+39
	BYTE	W01
	BYTE		        c_v+37
	BYTE	W01
	BYTE		        c_v+35
	BYTE	W01
	BYTE		        c_v+34
	BYTE	W01
	BYTE		        c_v+32
	BYTE	W01
	BYTE		        c_v+30
	BYTE	W01
	BYTE		        c_v+28
	BYTE	W01
	BYTE		        c_v+27
	BYTE	W01
	BYTE		        c_v+25
	BYTE	W01
	BYTE		        c_v+23
	BYTE	W01
	BYTE		        c_v+21
	BYTE	W01
	BYTE		        c_v+20
	BYTE	W01
	BYTE		        c_v+18
	BYTE	W01
	BYTE		        c_v+16
	BYTE	W01
	BYTE		        c_v+14
	BYTE	W01
	BYTE		        c_v+13
	BYTE	W01
	BYTE		        c_v+11
	BYTE	W01
	BYTE		        c_v+9
	BYTE	W01
	BYTE		        c_v+7
	BYTE	W01
	BYTE		        c_v+6
	BYTE	W01
	BYTE		        c_v+4
	BYTE	W01
	BYTE		        c_v+2
	BYTE	W01
	BYTE		        c_v+1
	BYTE	W01
	BYTE		        c_v-1
	BYTE	W01
	BYTE		        c_v-3
	BYTE	W01
	BYTE		        c_v-5
	BYTE	W01
	BYTE		        c_v-6
	BYTE	W01
	BYTE		        c_v-8
	BYTE	W01
	BYTE		        c_v-10
	BYTE	W01
	BYTE		        c_v-12
	BYTE	W01
	BYTE		        c_v-13
	BYTE	W01
	BYTE		        c_v-15
	BYTE	W01
	BYTE		        c_v-17
	BYTE	W01
	BYTE		        c_v-19
	BYTE	W01
	BYTE		        c_v-20
	BYTE	W01
	BYTE		        c_v-22
	BYTE	W01
	BYTE		        c_v-24
	BYTE	W01
	BYTE		        c_v-26
	BYTE	W01
	BYTE		        c_v-27
	BYTE	W01
	BYTE		        c_v-29
	BYTE	W01
	BYTE		        c_v-31
	BYTE	W01
	BYTE		        c_v-33
	BYTE	W01
	BYTE		        c_v-34
	BYTE	W01
	BYTE		        c_v-36
	BYTE	W01
	BYTE		        c_v-38
	BYTE	W01
	BYTE		        c_v-39
	BYTE	W01
	BYTE		        c_v-41
	BYTE	W01
	BYTE		        c_v-43
	BYTE	W01
	BYTE		        c_v-45
	BYTE	W01
	BYTE		        c_v-46
	BYTE	W01
	BYTE		        c_v-48
	BYTE	W01
	BYTE		        c_v-50
	BYTE	W01
	BYTE		        c_v-52
	BYTE	W01
	BYTE		        c_v-53
	BYTE	W01
	BYTE		        c_v-55
	BYTE	W01
	BYTE		        c_v-57
	BYTE	W01
	BYTE		        c_v-59
	BYTE	W01
	BYTE		        c_v-60
	BYTE	W01
	BYTE		        c_v-62
	BYTE	W01
// 010   ----------------------------------------
	BYTE		        c_v-64
	BYTE		TIE     Fn1 
	BYTE		TIE     Gn2 
	BYTE	W02
	BYTE		PAN     c_v-62
	BYTE	W01
	BYTE		        c_v-61
	BYTE	W01
	BYTE		        c_v-59
	BYTE	W01
	BYTE		        c_v-58
	BYTE	W01
	BYTE		        c_v-56
	BYTE	W01
	BYTE		        c_v-54
	BYTE	W01
	BYTE		        c_v-53
	BYTE	W01
	BYTE		        c_v-51
	BYTE	W01
	BYTE		        c_v-50
	BYTE	W01
	BYTE		        c_v-49
	BYTE		        c_v-48
	BYTE	W01
	BYTE		        c_v-47
	BYTE	W01
	BYTE		        c_v-45
	BYTE	W01
	BYTE		        c_v-44
	BYTE	W01
	BYTE		        c_v-42
	BYTE	W01
	BYTE		        c_v-41
	BYTE	W01
	BYTE		        c_v-39
	BYTE	W01
	BYTE		        c_v-38
	BYTE	W01
	BYTE		        c_v-36
	BYTE	W01
	BYTE		        c_v-34
	BYTE	W01
	BYTE		        c_v-33
	BYTE	W01
	BYTE		        c_v-31
	BYTE	W01
	BYTE		        c_v-30
	BYTE	W01
	BYTE		        c_v-28
	BYTE	W01
	BYTE		        c_v-27
	BYTE	W01
	BYTE		        c_v-25
	BYTE	W01
	BYTE		        c_v-24
	BYTE	W01
	BYTE		        c_v-22
	BYTE	W01
	BYTE		        c_v-21
	BYTE	W01
	BYTE		        c_v-19
	BYTE	W01
	BYTE		        c_v-18
	BYTE	W01
	BYTE		        c_v-16
	BYTE	W01
	BYTE		        c_v-14
	BYTE	W01
	BYTE		        c_v-13
	BYTE	W01
	BYTE		        c_v-11
	BYTE	W01
	BYTE		        c_v-10
	BYTE	W01
	BYTE		        c_v-8
	BYTE	W01
	BYTE	W01
	BYTE		        c_v-6
	BYTE	W01
	BYTE		        c_v-5
	BYTE	W01
	BYTE		        c_v-3
	BYTE	W01
	BYTE		        c_v-2
	BYTE	W01
	BYTE		        c_v+0
	BYTE	W01
	BYTE		        c_v+1
	BYTE	W01
	BYTE		        c_v+3
	BYTE	W01
	BYTE		        c_v+5
	BYTE	W01
	BYTE		        c_v+6
	BYTE	W01
	BYTE		        c_v+8
	BYTE	W01
	BYTE		        c_v+9
	BYTE	W01
	BYTE		        c_v+11
	BYTE	W01
	BYTE		        c_v+12
	BYTE	W01
	BYTE		        c_v+14
	BYTE	W01
	BYTE		        c_v+15
	BYTE	W01
	BYTE		        c_v+17
	BYTE	W01
	BYTE		        c_v+18
	BYTE	W01
	BYTE		        c_v+20
	BYTE	W01
	BYTE		        c_v+21
	BYTE	W01
	BYTE		        c_v+23
	BYTE	W01
	BYTE		        c_v+25
	BYTE	W01
	BYTE		        c_v+26
	BYTE	W01
	BYTE		        c_v+28
	BYTE	W01
	BYTE		        c_v+29
	BYTE	W01
	BYTE		        c_v+31
	BYTE	W01
	BYTE		        c_v+32
	BYTE	W01
	BYTE		        c_v+34
	BYTE	W01
	BYTE		        c_v+35
	BYTE	W01
	BYTE		        c_v+37
	BYTE	W01
	BYTE		        c_v+38
	BYTE	W01
	BYTE		        c_v+40
	BYTE	W01
	BYTE		        c_v+41
	BYTE	W01
	BYTE		        c_v+43
	BYTE	W01
	BYTE		        c_v+45
	BYTE	W01
	BYTE		        c_v+46
	BYTE	W01
	BYTE		        c_v+48
	BYTE	W01
	BYTE		        c_v+49
	BYTE	W01
	BYTE		        c_v+50
	BYTE	W01
	BYTE		        c_v+51
	BYTE	W01
	BYTE		        c_v+53
	BYTE	W01
	BYTE		        c_v+54
	BYTE	W01
	BYTE		        c_v+56
	BYTE	W01
	BYTE		        c_v+57
	BYTE	W01
	BYTE		        c_v+59
	BYTE	W01
	BYTE		        c_v+60
	BYTE	W01
	BYTE		        c_v+63
	BYTE	W02
	BYTE		        c_v+61
	BYTE	W01
	BYTE		        c_v+60
	BYTE	W01
	BYTE		        c_v+58
	BYTE	W01
	BYTE		        c_v+57
	BYTE	W01
	BYTE		        c_v+56
	BYTE		        c_v+55
	BYTE	W01
	BYTE		        c_v+53
	BYTE	W01
	BYTE		        c_v+52
	BYTE	W01
	BYTE		        c_v+50
	BYTE	W01
	BYTE		        c_v+49
	BYTE	W01
	BYTE		        c_v+47
	BYTE	W01
// 011   ----------------------------------------
	BYTE		        c_v+46
	BYTE	W01
	BYTE		        c_v+44
	BYTE	W01
	BYTE		        c_v+43
	BYTE	W01
	BYTE		        c_v+41
	BYTE	W01
	BYTE		        c_v+40
	BYTE	W01
	BYTE		        c_v+38
	BYTE	W01
	BYTE		        c_v+37
	BYTE	W01
	BYTE		        c_v+36
	BYTE		        c_v+35
	BYTE	W01
	BYTE		        c_v+33
	BYTE	W01
	BYTE		        c_v+32
	BYTE	W01
	BYTE		        c_v+30
	BYTE	W01
	BYTE		        c_v+29
	BYTE	W01
	BYTE		        c_v+27
	BYTE	W01
	BYTE		        c_v+26
	BYTE	W01
	BYTE		        c_v+24
	BYTE	W01
	BYTE		        c_v+23
	BYTE	W01
	BYTE		        c_v+21
	BYTE	W01
	BYTE		        c_v+20
	BYTE	W01
	BYTE		        c_v+18
	BYTE	W01
	BYTE		        c_v+17
	BYTE	W01
	BYTE		        c_v+16
	BYTE		        c_v+15
	BYTE	W01
	BYTE		        c_v+13
	BYTE	W01
	BYTE		        c_v+12
	BYTE	W01
	BYTE		        c_v+10
	BYTE	W01
	BYTE		        c_v+9
	BYTE	W01
	BYTE		        c_v+7
	BYTE	W01
	BYTE		        c_v+6
	BYTE	W01
	BYTE		        c_v+5
	BYTE		        c_v+4
	BYTE	W01
	BYTE		        c_v+3
	BYTE	W01
	BYTE		        c_v+1
	BYTE	W01
	BYTE		        c_v+0
	BYTE	W01
	BYTE		        c_v-2
	BYTE	W01
	BYTE		        c_v-3
	BYTE	W01
	BYTE		        c_v-5
	BYTE	W01
	BYTE		        c_v-7
	BYTE	W01
	BYTE		        c_v-8
	BYTE	W01
	BYTE		        c_v-10
	BYTE	W01
	BYTE		        c_v-11
	BYTE	W01
	BYTE		        c_v-13
	BYTE	W01
	BYTE		        c_v-14
	BYTE	W01
	BYTE		        c_v-15
	BYTE		        c_v-16
	BYTE	W01
	BYTE		        c_v-17
	BYTE	W01
	BYTE		        c_v-19
	BYTE	W01
	BYTE		        c_v-20
	BYTE	W01
	BYTE		        c_v-22
	BYTE	W01
	BYTE		        c_v-23
	BYTE	W01
	BYTE		        c_v-25
	BYTE	W01
	BYTE		        c_v-27
	BYTE	W01
	BYTE		        c_v-28
	BYTE	W01
	BYTE		        c_v-30
	BYTE	W01
	BYTE		        c_v-31
	BYTE	W01
	BYTE		        c_v-33
	BYTE	W01
	BYTE		        c_v-34
	BYTE	W01
	BYTE		        c_v-35
	BYTE		        c_v-36
	BYTE	W01
	BYTE		        c_v-37
	BYTE	W01
	BYTE		        c_v-39
	BYTE	W01
	BYTE		        c_v-40
	BYTE	W01
	BYTE		        c_v-42
	BYTE	W01
	BYTE		        c_v-43
	BYTE	W01
	BYTE		        c_v-45
	BYTE	W01
	BYTE		        c_v-47
	BYTE	W01
	BYTE		        c_v-48
	BYTE	W01
	BYTE		        c_v-50
	BYTE	W01
	BYTE		        c_v-51
	BYTE	W01
	BYTE		        c_v-53
	BYTE	W01
	BYTE		        c_v-54
	BYTE	W01
	BYTE		        c_v-55
	BYTE		        c_v-56
	BYTE	W01
	BYTE		        c_v-57
	BYTE	W01
	BYTE		        c_v-59
	BYTE	W01
	BYTE		        c_v-60
	BYTE	W01
	BYTE		        c_v-62
	BYTE	W01
	BYTE		        c_v-63
	BYTE	W01
	BYTE		        c_v-64
	BYTE	W01
	BYTE		        c_v-62
	BYTE	W01
	BYTE		        c_v-61
	BYTE	W01
	BYTE		        c_v-59
	BYTE	W01
	BYTE		        c_v-57
	BYTE	W01
	BYTE		        c_v-56
	BYTE	W01
	BYTE		        c_v-54
	BYTE	W01
	BYTE		        c_v-53
	BYTE		        c_v-52
	BYTE	W01
	BYTE		        c_v-51
	BYTE	W01
	BYTE		        c_v-49
	BYTE	W01
	BYTE		        c_v-47
	BYTE	W01
	BYTE		        c_v-46
	BYTE	W01
	BYTE		        c_v-44
	BYTE	W01
	BYTE		        c_v-42
	BYTE	W01
	BYTE		        c_v-41
	BYTE	W01
	BYTE		        c_v-39
	BYTE	W01
	BYTE		        c_v-37
	BYTE	W01
	BYTE		        c_v-36
	BYTE	W01
	BYTE		        c_v-34
	BYTE	W01
	BYTE		        c_v-32
	BYTE	W01
	BYTE		        c_v-31
	BYTE	W01
	BYTE		        c_v-29
	BYTE	W01
	BYTE		        c_v-27
	BYTE	W01
	BYTE		EOT     Fn1 
	BYTE		        Gn2 
	BYTE		        Cn3 
	BYTE	W01
	BYTE	GoTo
	 POIN2	GharnefSong_4_B1
GharnefSong_4_B2:
// 012   ----------------------------------------
	BYTE	FINE

//**************** Track 5 (Midi-Chn.5) ****************//

GharnefSong_5:
	BYTE	KEYSH   GharnefSong_key+0
GharnefSong_5_B1:
// 000   ----------------------------------------
	BYTE		VOICE   40
	BYTE		VOL     117*GharnefSong_mvl/mxv
	BYTE		PAN     c_v+3
	BYTE		N96     Fn0   v104
	BYTE	W06
	BYTE	W03
	BYTE	W03
	BYTE	W03
	BYTE	W03
	BYTE	W03
	BYTE	W03
	BYTE	W03
	BYTE	W03
	BYTE	W03
	BYTE	W03
	BYTE	W03
	BYTE	W03
	BYTE	W03
	BYTE	W03
	BYTE	W03
	BYTE	W03
	BYTE	W03
	BYTE	W03
	BYTE	W03
	BYTE	W03
	BYTE	W03
	BYTE	W03
	BYTE	W03
	BYTE	W03
	BYTE	W03
	BYTE	W03
	BYTE	W03
	BYTE	W03
	BYTE	W03
	BYTE	W03
// 001   ----------------------------------------
	BYTE		TIE     Fs0   v088
	BYTE	W36
	BYTE	W06
	BYTE	W06
	BYTE	W03
	BYTE	W03
	BYTE	W06
	BYTE	W03
	BYTE	W03
	BYTE	W03
	BYTE	W03
	BYTE	W03
	BYTE	W03
	BYTE	W03
	BYTE	W03
	BYTE	W03
	BYTE	W03
	BYTE	W03
	BYTE	W03
// 002   ----------------------------------------
	BYTE		        Fn0 
	BYTE	W01
	BYTE		EOT     Fs0 
	BYTE	W05
	BYTE	W06
	BYTE	W06
	BYTE	W03
	BYTE	W06
	BYTE	W03
	BYTE	W03
	BYTE	W03
	BYTE	W03
	BYTE	W03
	BYTE	W03
	BYTE	W03
	BYTE	W03
	BYTE	W03
	BYTE	W03
	BYTE	W03
	BYTE	W03
	BYTE	W03
	BYTE	W03
	BYTE	W24
	BYTE	W03
// 003   ----------------------------------------
	BYTE	W24
	BYTE	W03
	BYTE	W03
	BYTE	W03
	BYTE	W03
	BYTE	W03
	BYTE	W03
	BYTE	W03
	BYTE	W03
	BYTE	W03
	BYTE	W03
	BYTE	W03
	BYTE	W03
	BYTE	W03
	BYTE	W03
	BYTE	W03
	BYTE	W03
	BYTE	W03
	BYTE	W03
	BYTE	W03
	BYTE	W03
	BYTE	W03
	BYTE	W03
	BYTE	W03
	BYTE	W01
	BYTE	W01
	BYTE		        Fn0 
	BYTE	W01
// 004   ----------------------------------------
	BYTE		N96     Fn0   v104
	BYTE	W06
	BYTE	W07
	BYTE	W08
	BYTE	W07
	BYTE	W04
	BYTE	W07
	BYTE	W04
	BYTE	W08
	BYTE	W03
	BYTE	W04
	BYTE	W04
	BYTE	W04
	BYTE	W07
	BYTE	W04
	BYTE	W04
	BYTE	W03
	BYTE	W04
	BYTE	W04
	BYTE	W04
// 005   ----------------------------------------
	BYTE		TIE     Fs0   v088
	BYTE	W03
	BYTE	W04
	BYTE	W04
	BYTE	W04
	BYTE	W03
	BYTE	W04
	BYTE	W04
	BYTE	W04
	BYTE	W03
	BYTE	W04
	BYTE	W20
	BYTE	W01
	BYTE	W02
	BYTE	W01
	BYTE	W02
	BYTE	W01
	BYTE	W02
	BYTE	W01
	BYTE	W02
	BYTE	W01
	BYTE	W02
	BYTE	W01
	BYTE	W02
	BYTE	W01
	BYTE	W02
	BYTE	W01
	BYTE	W02
	BYTE	W01
	BYTE	W02
	BYTE	W01
	BYTE	W02
	BYTE	W01
	BYTE	W02
	BYTE	W01
	BYTE	W05
// 006   ----------------------------------------
	BYTE		        Fn0 
	BYTE	W01
	BYTE		EOT     Fs0 
	BYTE	W08
	BYTE	W13
	BYTE	W09
	BYTE	W14
	BYTE	W09
	BYTE	W04
	BYTE	W09
	BYTE	W09
	BYTE	W05
	BYTE	W09
	BYTE	W05
	BYTE	W01
// 007   ----------------------------------------
	BYTE	W03
	BYTE	W05
	BYTE	W09
	BYTE	W04
	BYTE	W05
	BYTE	W04
	BYTE	W05
	BYTE	W04
	BYTE	W05
	BYTE	W04
	BYTE	W05
	BYTE	W04
	BYTE	W05
	BYTE	W04
	BYTE	W05
	BYTE	W04
	BYTE	W05
	BYTE	W05
	BYTE	W10
	BYTE		        Fn0 
	BYTE	W01
// 008   ----------------------------------------
	BYTE		N96     Fn0   v092
	BYTE	W28
	BYTE	W06
	BYTE	W03
	BYTE	W03
	BYTE	W03
	BYTE	W06
	BYTE	W03
	BYTE	W03
	BYTE	W03
	BYTE	W03
	BYTE	W03
	BYTE	W03
	BYTE	W03
	BYTE	W03
	BYTE	W03
	BYTE	W03
	BYTE	W03
	BYTE	W03
	BYTE	W03
	BYTE	W03
	BYTE	W03
	BYTE	W02
// 009   ----------------------------------------
	BYTE		TIE     Fs0   v080
	BYTE	W01
	BYTE	W06
	BYTE	W06
	BYTE	W03
	BYTE	W06
	BYTE	W03
	BYTE	W03
	BYTE	W03
	BYTE	W03
	BYTE	W03
	BYTE	W03
	BYTE	W03
	BYTE	W03
	BYTE	W03
	BYTE	W03
	BYTE	W03
	BYTE	W03
	BYTE	W03
	BYTE	W03
	BYTE	W03
	BYTE	W03
	BYTE	W03
	BYTE	W03
	BYTE	W20
// 010   ----------------------------------------
	BYTE		        Fn0 
	BYTE	W01
	BYTE		EOT     Fs0 
	BYTE	W28
	BYTE	W01
	BYTE	W07
	BYTE	W08
	BYTE	W08
	BYTE	W04
	BYTE	W07
	BYTE	W08
	BYTE	W04
	BYTE	W04
	BYTE	W07
	BYTE	W04
	BYTE	W04
	BYTE	W01
// 011   ----------------------------------------
	BYTE	W07
	BYTE	W04
	BYTE	W04
	BYTE	W03
	BYTE	W04
	BYTE	W04
	BYTE	W04
	BYTE	W04
	BYTE	W04
	BYTE	W04
	BYTE	W03
	BYTE	W04
	BYTE	W04
	BYTE	W04
	BYTE	W04
	BYTE	W04
	BYTE	W03
	BYTE	W04
	BYTE	W04
	BYTE	W04
	BYTE	W04
	BYTE	W04
	BYTE	W04
	BYTE	W03
	BYTE		        Fn0 
	BYTE	W01
	BYTE	GoTo
	 POIN2	GharnefSong_5_B1
GharnefSong_5_B2:
// 012   ----------------------------------------
	BYTE	FINE

//**************** Track 6 (Midi-Chn.6) ****************//

GharnefSong_6:
	BYTE	KEYSH   GharnefSong_key+0
GharnefSong_6_B1:
// 000   ----------------------------------------
	BYTE		VOICE   40
	BYTE		VOL     127*GharnefSong_mvl/mxv
	BYTE		PAN     c_v-45
	BYTE		N88     Cn2   v088
	BYTE	W17
	BYTE	W03
	BYTE	W03
	BYTE	W03
	BYTE	W03
	BYTE	W03
	BYTE	W03
	BYTE	W03
	BYTE	W03
	BYTE	W03
	BYTE	W03
	BYTE	W03
	BYTE	W03
	BYTE	W03
	BYTE	W03
	BYTE	W03
	BYTE	W03
	BYTE	W03
	BYTE	W03
	BYTE	W03
	BYTE	W02
	BYTE	W14
	BYTE		N92     Cn2   v076
	BYTE	W06
// 001   ----------------------------------------
	BYTE	W40
	BYTE	W03
	BYTE	W03
	BYTE	W03
	BYTE	W03
	BYTE	W03
	BYTE	W03
	BYTE	W03
	BYTE	W03
	BYTE	W03
	BYTE	W03
	BYTE	W03
	BYTE	W03
	BYTE	W03
	BYTE	W03
	BYTE	W03
	BYTE	W03
	BYTE	W02
	BYTE		TIE     Cn2   v072
	BYTE	W01
	BYTE	W05
// 002   ----------------------------------------
GharnefSong_6_002:
	BYTE	W09
	BYTE	W10
	BYTE	W10
	BYTE	W06
	BYTE	W10
	BYTE	W07
	BYTE	W07
	BYTE	W06
	BYTE	W07
	BYTE	W03
	BYTE	W07
	BYTE	W03
	BYTE	W04
	BYTE	W06
	BYTE	W01
	BYTE	PEND
// 003   ----------------------------------------
GharnefSong_6_003:
	BYTE	W03
	BYTE	W03
	BYTE	W03
	BYTE	W04
	BYTE	W03
	BYTE	W03
	BYTE	W04
	BYTE	W03
	BYTE	W03
	BYTE	W04
	BYTE	W03
	BYTE	W03
	BYTE	W03
	BYTE	W04
	BYTE	W03
	BYTE	W03
	BYTE	W04
	BYTE	W03
	BYTE	W03
	BYTE	W02
	BYTE	W28
	BYTE	W01
	BYTE	PEND
	BYTE		EOT     Cn2 
	BYTE	W03
// 004   ----------------------------------------
	BYTE		N88     Cn2   v088
	BYTE	W17
	BYTE	W03
	BYTE	W03
	BYTE	W03
	BYTE	W03
	BYTE	W03
	BYTE	W03
	BYTE	W03
	BYTE	W03
	BYTE	W03
	BYTE	W03
	BYTE	W03
	BYTE	W03
	BYTE	W03
	BYTE	W03
	BYTE	W03
	BYTE	W03
	BYTE	W03
	BYTE	W03
	BYTE	W03
	BYTE	W02
	BYTE	W14
	BYTE		N92     Cn2   v076
	BYTE	W06
// 005   ----------------------------------------
	BYTE	W40
	BYTE	W03
	BYTE	W03
	BYTE	W03
	BYTE	W03
	BYTE	W03
	BYTE	W03
	BYTE	W03
	BYTE	W03
	BYTE	W03
	BYTE	W03
	BYTE	W03
	BYTE	W03
	BYTE	W03
	BYTE	W03
	BYTE	W03
	BYTE	W03
	BYTE	W03
	BYTE	W05
// 006   ----------------------------------------
	BYTE	W09
	BYTE	W09
	BYTE		TIE     Cn2   v072
	BYTE	W01
	BYTE	W10
	BYTE	W06
	BYTE	W10
	BYTE	W07
	BYTE	W07
	BYTE	W06
	BYTE	W07
	BYTE	W03
	BYTE	W07
	BYTE	W03
	BYTE	W04
	BYTE	W06
	BYTE	W01
// 007   ----------------------------------------
	BYTE	W03
	BYTE	W03
	BYTE	W03
	BYTE	W04
	BYTE	W03
	BYTE	W03
	BYTE	W04
	BYTE	W03
	BYTE	W03
	BYTE	W04
	BYTE	W03
	BYTE	W03
	BYTE	W03
	BYTE	W04
	BYTE	W03
	BYTE	W03
	BYTE	W04
	BYTE	W03
	BYTE	W03
	BYTE	W02
	BYTE	W32
	BYTE		EOT   
// 008   ----------------------------------------
	BYTE		N21     Cn2   v076
	BYTE	W17
	BYTE	W03
	BYTE	W03
	BYTE	W03
	BYTE	W03
	BYTE	W03
	BYTE	W03
	BYTE	W03
	BYTE	W03
	BYTE	W03
	BYTE	W03
	BYTE	W03
	BYTE	W03
	BYTE	W03
	BYTE	W03
	BYTE	W03
	BYTE	W03
	BYTE	W03
	BYTE	W03
	BYTE	W03
	BYTE	W02
	BYTE	W14
	BYTE		N92     Cn2   v072
	BYTE	W06
// 009   ----------------------------------------
	BYTE	W40
	BYTE	W03
	BYTE	W03
	BYTE	W03
	BYTE	W03
	BYTE	W03
	BYTE	W03
	BYTE	W03
	BYTE	W03
	BYTE	W03
	BYTE	W03
	BYTE	W03
	BYTE	W03
	BYTE	W03
	BYTE	W03
	BYTE	W03
	BYTE	W03
	BYTE	W02
	BYTE		TIE     Cn2   v068
	BYTE	W01
	BYTE	W05
// 010   ----------------------------------------
	BYTE	PATT
	 POIN2	GharnefSong_6_002
// 011   ----------------------------------------
	BYTE	PATT
	 POIN2	GharnefSong_6_003
	BYTE		EOT     Cn2 
	BYTE	W03
	BYTE	GoTo
	 POIN2	GharnefSong_6_B1
GharnefSong_6_B2:
// 012   ----------------------------------------
	BYTE	FINE

//**************** Track 7 (Midi-Chn.7) ****************//

GharnefSong_7:
	BYTE	KEYSH   GharnefSong_key+0
GharnefSong_7_B1:
// 000   ----------------------------------------
	BYTE		VOICE   40
	BYTE		VOL     127*GharnefSong_mvl/mxv
	BYTE		PAN     c_v+45
	BYTE	W06
	BYTE		N90     Fn3   v084
	BYTE	W11
	BYTE	W03
	BYTE	W03
	BYTE	W03
	BYTE	W03
	BYTE	W03
	BYTE	W03
	BYTE	W03
	BYTE	W03
	BYTE	W03
	BYTE	W03
	BYTE	W03
	BYTE	W03
	BYTE	W03
	BYTE	W03
	BYTE	W03
	BYTE	W03
	BYTE	W03
	BYTE	W03
	BYTE	W03
	BYTE	W02
	BYTE	W20
// 001   ----------------------------------------
	BYTE	W24
	BYTE		N96     Fs3   v080
	BYTE	W16
	BYTE	W03
	BYTE	W03
	BYTE	W03
	BYTE	W03
	BYTE	W03
	BYTE	W03
	BYTE	W03
	BYTE	W03
	BYTE	W03
	BYTE	W03
	BYTE	W03
	BYTE	W03
	BYTE	W03
	BYTE	W03
	BYTE	W03
	BYTE	W03
	BYTE	W03
	BYTE	W05
// 002   ----------------------------------------
	BYTE	W09
	BYTE	W10
	BYTE	W05
	BYTE		TIE     Fn3   v084
	BYTE	W05
	BYTE	W06
	BYTE	W10
	BYTE	W07
	BYTE	W07
	BYTE	W06
	BYTE	W07
	BYTE	W03
	BYTE	W07
	BYTE	W03
	BYTE	W04
	BYTE	W06
	BYTE	W01
// 003   ----------------------------------------
GharnefSong_7_003:
	BYTE	W03
	BYTE	W03
	BYTE	W03
	BYTE	W04
	BYTE	W03
	BYTE	W03
	BYTE	W04
	BYTE	W03
	BYTE	W03
	BYTE	W04
	BYTE	W03
	BYTE	W03
	BYTE	W03
	BYTE	W04
	BYTE	W03
	BYTE	W03
	BYTE	W04
	BYTE	W03
	BYTE	W03
	BYTE	W02
	BYTE	W32
	BYTE	PEND
	BYTE		EOT     Fn3 
// 004   ----------------------------------------
	BYTE	W17
	BYTE	W03
	BYTE	W03
	BYTE	W03
	BYTE	W03
	BYTE	W01
	BYTE		N90     Fn3   v084
	BYTE	W02
	BYTE	W03
	BYTE	W03
	BYTE	W03
	BYTE	W03
	BYTE	W03
	BYTE	W03
	BYTE	W03
	BYTE	W03
	BYTE	W03
	BYTE	W03
	BYTE	W03
	BYTE	W03
	BYTE	W03
	BYTE	W03
	BYTE	W02
	BYTE	W20
// 005   ----------------------------------------
	BYTE	W24
	BYTE		N68     Fs3   v080
	BYTE	W16
	BYTE	W03
	BYTE	W03
	BYTE	W03
	BYTE	W03
	BYTE	W03
	BYTE	W03
	BYTE	W03
	BYTE	W03
	BYTE	W03
	BYTE	W03
	BYTE	W03
	BYTE	W03
	BYTE	W03
	BYTE	W03
	BYTE	W03
	BYTE	W03
	BYTE	W03
	BYTE	W05
// 006   ----------------------------------------
	BYTE		N92     Fn3   v084
	BYTE	W09
	BYTE	W10
	BYTE	W10
	BYTE	W06
	BYTE	W10
	BYTE	W07
	BYTE	W07
	BYTE	W06
	BYTE	W07
	BYTE	W03
	BYTE	W07
	BYTE	W03
	BYTE	W04
	BYTE	W06
	BYTE	W01
// 007   ----------------------------------------
	BYTE	PATT
	 POIN2	GharnefSong_7_003
// 008   ----------------------------------------
	BYTE	W06
	BYTE		N90     Fn3   v076
	BYTE	W11
	BYTE	W03
	BYTE	W03
	BYTE	W03
	BYTE	W03
	BYTE	W03
	BYTE	W03
	BYTE	W03
	BYTE	W03
	BYTE	W03
	BYTE	W03
	BYTE	W03
	BYTE	W03
	BYTE	W03
	BYTE	W03
	BYTE	W03
	BYTE	W03
	BYTE	W03
	BYTE	W03
	BYTE	W03
	BYTE	W02
	BYTE	W20
// 009   ----------------------------------------
	BYTE	W24
	BYTE		N96     Fs3 
	BYTE	W16
	BYTE	W03
	BYTE	W03
	BYTE	W03
	BYTE	W03
	BYTE	W03
	BYTE	W03
	BYTE	W03
	BYTE	W03
	BYTE	W03
	BYTE	W03
	BYTE	W03
	BYTE	W03
	BYTE	W03
	BYTE	W03
	BYTE	W03
	BYTE	W03
	BYTE	W03
	BYTE	W05
// 010   ----------------------------------------
	BYTE	W09
	BYTE	W10
	BYTE	W05
	BYTE		TIE     Fn3   v080
	BYTE	W05
	BYTE	W06
	BYTE	W10
	BYTE	W07
	BYTE	W07
	BYTE	W06
	BYTE	W07
	BYTE	W03
	BYTE	W07
	BYTE	W03
	BYTE	W04
	BYTE	W06
	BYTE	W01
// 011   ----------------------------------------
	BYTE	PATT
	 POIN2	GharnefSong_7_003
	BYTE		EOT     Fn3 
	BYTE	GoTo
	 POIN2	GharnefSong_7_B1
GharnefSong_7_B2:
// 012   ----------------------------------------
	BYTE	FINE

//**************** Track 8 (Midi-Chn.8) ****************//

GharnefSong_8:
	BYTE	KEYSH   GharnefSong_key+0
GharnefSong_8_B1:
// 000   ----------------------------------------
	BYTE		VOICE   40
	BYTE	W96
// 001   ----------------------------------------
	BYTE	W96
// 002   ----------------------------------------
	BYTE	W72
	BYTE		VOL     85*GharnefSong_mvl/mxv
	BYTE	W24
// 003   ----------------------------------------
	BYTE		PAN     c_v+0
	BYTE	W01
	BYTE		        c_v+1
	BYTE	W01
	BYTE		        c_v+2
	BYTE	W01
	BYTE		        c_v+3
	BYTE	W01
	BYTE		        c_v+4
	BYTE	W01
	BYTE		        c_v+5
	BYTE	W01
	BYTE		        c_v+6
	BYTE	W01
	BYTE		        c_v+7
	BYTE	W01
	BYTE		        c_v+8
	BYTE	W01
	BYTE		        c_v+9
	BYTE	W01
	BYTE		        c_v+10
	BYTE	W01
	BYTE		        c_v+11
	BYTE	W01
	BYTE		        c_v+12
	BYTE	W01
	BYTE		        c_v+13
	BYTE	W01
	BYTE		        c_v+14
	BYTE	W01
	BYTE		        c_v+15
	BYTE	W01
	BYTE		        c_v+16
	BYTE	W01
	BYTE		        c_v+17
	BYTE	W01
	BYTE		        c_v+18
	BYTE	W01
	BYTE		        c_v+19
	BYTE	W01
	BYTE		        c_v+20
	BYTE		TIE     Cn3   v108
	BYTE	W01
	BYTE		PAN     c_v+21
	BYTE	W01
	BYTE		        c_v+22
	BYTE	W01
	BYTE		        c_v+23
	BYTE	W01
	BYTE		        c_v+24
	BYTE	W01
	BYTE		        c_v+25
	BYTE	W01
	BYTE		        c_v+26
	BYTE	W01
	BYTE		        c_v+27
	BYTE	W01
	BYTE		        c_v+28
	BYTE	W01
	BYTE		        c_v+29
	BYTE	W01
	BYTE		        c_v+30
	BYTE	W01
	BYTE		        c_v+31
	BYTE	W01
	BYTE		        c_v+32
	BYTE	W01
	BYTE		        c_v+33
	BYTE	W01
	BYTE		        c_v+34
	BYTE	W01
	BYTE		        c_v+35
	BYTE	W01
	BYTE		        c_v+36
	BYTE	W01
	BYTE		        c_v+37
	BYTE	W01
	BYTE		        c_v+38
	BYTE	W01
	BYTE		        c_v+39
	BYTE	W01
	BYTE		        c_v+40
	BYTE	W01
	BYTE		        c_v+41
	BYTE	W01
	BYTE		        c_v+42
	BYTE	W01
	BYTE		        c_v+43
	BYTE	W01
	BYTE		        c_v+44
	BYTE	W01
	BYTE		        c_v+45
	BYTE	W01
	BYTE		        c_v+46
	BYTE	W01
	BYTE		        c_v+47
	BYTE	W01
	BYTE		        c_v+48
	BYTE	W01
	BYTE		        c_v+49
	BYTE	W01
	BYTE		        c_v+50
	BYTE	W01
	BYTE		        c_v+51
	BYTE	W01
	BYTE		        c_v+52
	BYTE	W01
	BYTE		        c_v+53
	BYTE	W01
	BYTE		        c_v+54
	BYTE	W01
	BYTE		        c_v+55
	BYTE	W01
	BYTE		        c_v+56
	BYTE	W01
	BYTE		        c_v+57
	BYTE	W01
	BYTE		        c_v+58
	BYTE	W01
	BYTE		        c_v+59
	BYTE	W01
	BYTE		        c_v+60
	BYTE	W01
	BYTE		        c_v+61
	BYTE	W01
	BYTE		        c_v+62
	BYTE	W01
	BYTE		        c_v+58
	BYTE	W01
	BYTE		        c_v+49
	BYTE	W01
	BYTE		        c_v+43
	BYTE	W01
	BYTE		        c_v+35
	BYTE	W01
	BYTE		        c_v+26
	BYTE	W01
	BYTE		        c_v+20
	BYTE	W01
	BYTE		        c_v+12
	BYTE	W01
	BYTE		        c_v+3
	BYTE	W01
	BYTE		        c_v-3
	BYTE	W01
	BYTE		        c_v-12
	BYTE	W01
	BYTE		        c_v-20
	BYTE	W01
	BYTE		        c_v-26
	BYTE	W01
	BYTE		        c_v-35
	BYTE	W01
	BYTE		        c_v-43
	BYTE	W01
	BYTE		        c_v-49
	BYTE	W01
	BYTE		        c_v-58
	BYTE	W01
	BYTE		        c_v-63
	BYTE	W01
	BYTE		        c_v-61
	BYTE	W01
	BYTE		        c_v-58
	BYTE	W01
	BYTE		        c_v-55
	BYTE	W01
	BYTE		        c_v-53
	BYTE	W01
	BYTE		        c_v-50
	BYTE	W01
	BYTE		        c_v-46
	BYTE	W01
	BYTE		        c_v-44
	BYTE	W01
	BYTE		        c_v-41
	BYTE	W01
	BYTE		        c_v-38
	BYTE	W01
	BYTE		        c_v-36
	BYTE	W01
	BYTE		        c_v-32
	BYTE	W01
	BYTE		        c_v-29
	BYTE	W01
	BYTE		        c_v-27
	BYTE	W01
	BYTE		        c_v-24
	BYTE	W01
	BYTE		        c_v-21
	BYTE	W01
	BYTE		        c_v-19
	BYTE	W01
// 004   ----------------------------------------
	BYTE		        c_v-15
	BYTE	W01
	BYTE		        c_v-12
	BYTE	W01
	BYTE		        c_v-10
	BYTE	W01
	BYTE		        c_v-7
	BYTE	W01
	BYTE		        c_v-4
	BYTE	W01
	BYTE		        c_v-2
	BYTE	W01
	BYTE		        c_v+0
	BYTE	W90
// 005   ----------------------------------------
	BYTE	W08
	BYTE		EOT   
	BYTE	W88
// 006   ----------------------------------------
	BYTE	W24
	BYTE		PAN     c_v-1
	BYTE	W01
	BYTE		        c_v-2
	BYTE	W01
	BYTE		        c_v-3
	BYTE	W01
	BYTE		        c_v-4
	BYTE	W01
	BYTE		        c_v-5
	BYTE	W01
	BYTE		        c_v-6
	BYTE	W01
	BYTE		        c_v-7
	BYTE	W01
	BYTE		        c_v-8
	BYTE	W01
	BYTE		        c_v-10
	BYTE	W01
	BYTE		        c_v-11
	BYTE	W01
	BYTE		        c_v-12
	BYTE	W01
	BYTE		        c_v-13
	BYTE	W01
	BYTE		        c_v-14
	BYTE	W01
	BYTE		        c_v-15
	BYTE	W01
	BYTE		        c_v-16
	BYTE	W01
	BYTE		        c_v-17
	BYTE	W01
	BYTE		        c_v-18
	BYTE	W01
	BYTE		        c_v-19
	BYTE	W01
	BYTE		        c_v-20
	BYTE	W01
	BYTE		        c_v-21
	BYTE	W01
	BYTE		        c_v-22
	BYTE	W01
	BYTE		        c_v-23
	BYTE	W01
	BYTE		        c_v-24
	BYTE	W01
	BYTE		        c_v-25
	BYTE	W01
	BYTE		        c_v-26
	BYTE		TIE     Cs3   v092
	BYTE	W01
	BYTE		PAN     c_v-27
	BYTE	W01
	BYTE		        c_v-28
	BYTE	W01
	BYTE		        c_v-30
	BYTE	W01
	BYTE		        c_v-31
	BYTE	W01
	BYTE		        c_v-32
	BYTE	W01
	BYTE		        c_v-33
	BYTE	W01
	BYTE		        c_v-34
	BYTE	W01
	BYTE		        c_v-35
	BYTE	W01
	BYTE		        c_v-36
	BYTE	W01
	BYTE		        c_v-37
	BYTE	W01
	BYTE		        c_v-38
	BYTE	W01
	BYTE		        c_v-39
	BYTE	W01
	BYTE		        c_v-40
	BYTE	W01
	BYTE		        c_v-41
	BYTE	W01
	BYTE		        c_v-42
	BYTE	W01
	BYTE		        c_v-43
	BYTE	W01
	BYTE		        c_v-41
	BYTE	W01
	BYTE		        c_v-38
	BYTE	W01
	BYTE		        c_v-35
	BYTE	W01
	BYTE		        c_v-33
	BYTE	W01
	BYTE		        c_v-30
	BYTE	W01
	BYTE		        c_v-27
	BYTE	W01
	BYTE		        c_v-25
	BYTE	W01
	BYTE		        c_v-22
	BYTE	W01
	BYTE		        c_v-19
	BYTE	W01
	BYTE		        c_v-17
	BYTE	W01
	BYTE		        c_v-14
	BYTE	W01
	BYTE		        c_v-11
	BYTE	W01
	BYTE		        c_v-9
	BYTE	W01
	BYTE		        c_v-6
	BYTE	W01
	BYTE		        c_v-3
	BYTE	W01
	BYTE		        c_v-1
	BYTE	W01
	BYTE		        c_v+2
	BYTE	W01
	BYTE		        c_v+5
	BYTE	W01
	BYTE		        c_v+7
	BYTE	W01
	BYTE		        c_v+10
	BYTE	W01
	BYTE		        c_v+13
	BYTE	W01
	BYTE		        c_v+15
	BYTE	W01
	BYTE		        c_v+18
	BYTE	W01
	BYTE		        c_v+21
	BYTE	W01
	BYTE		        c_v+23
	BYTE	W01
	BYTE		        c_v+26
	BYTE	W01
	BYTE		        c_v+29
	BYTE	W01
	BYTE		        c_v+31
	BYTE	W01
	BYTE		        c_v+34
	BYTE	W01
	BYTE		        c_v+37
	BYTE	W01
	BYTE		        c_v+39
	BYTE	W01
// 007   ----------------------------------------
	BYTE		        c_v+38
	BYTE	W01
	BYTE		        c_v+36
	BYTE	W01
	BYTE		        c_v+34
	BYTE	W01
	BYTE		        c_v+32
	BYTE	W01
	BYTE		        c_v+30
	BYTE	W01
	BYTE		        c_v+28
	BYTE	W01
	BYTE		        c_v+26
	BYTE	W01
	BYTE		        c_v+24
	BYTE	W01
	BYTE		        c_v+22
	BYTE	W01
	BYTE		        c_v+19
	BYTE	W01
	BYTE		        c_v+17
	BYTE	W01
	BYTE		        c_v+15
	BYTE	W01
	BYTE		        c_v+13
	BYTE	W01
	BYTE		        c_v+11
	BYTE	W01
	BYTE		        c_v+9
	BYTE	W01
	BYTE		        c_v+7
	BYTE	W01
	BYTE		        c_v+5
	BYTE	W01
	BYTE		        c_v+3
	BYTE	W01
	BYTE		        c_v+1
	BYTE	W01
	BYTE		        c_v-2
	BYTE	W01
	BYTE		        c_v-4
	BYTE	W01
	BYTE		        c_v-6
	BYTE	W01
	BYTE		        c_v-8
	BYTE	W01
	BYTE		        c_v-10
	BYTE	W01
	BYTE		        c_v-12
	BYTE	W01
	BYTE		        c_v-14
	BYTE	W01
	BYTE		        c_v-16
	BYTE	W01
	BYTE		        c_v-18
	BYTE	W01
	BYTE		        c_v-20
	BYTE	W01
	BYTE		        c_v-19
	BYTE	W01
	BYTE		        c_v-17
	BYTE	W01
	BYTE		        c_v-15
	BYTE	W01
	BYTE		        c_v-13
	BYTE	W01
	BYTE		        c_v-11
	BYTE	W01
	BYTE		        c_v-9
	BYTE	W01
	BYTE		        c_v-7
	BYTE	W01
	BYTE		        c_v-5
	BYTE	W01
	BYTE		        c_v-3
	BYTE	W01
	BYTE		        c_v-2
	BYTE	W01
	BYTE		        c_v+0
	BYTE	W01
	BYTE		        c_v+2
	BYTE	W01
	BYTE		        c_v+4
	BYTE	W01
	BYTE		        c_v+5
	BYTE	W01
	BYTE		        c_v+7
	BYTE	W01
	BYTE		        c_v+9
	BYTE	W01
	BYTE		        c_v+11
	BYTE	W01
	BYTE		        c_v+13
	BYTE	W01
	BYTE		        c_v+15
	BYTE	W01
	BYTE		        c_v+17
	BYTE	W01
	BYTE		        c_v+18
	BYTE	W01
	BYTE		        c_v+20
	BYTE	W01
	BYTE		        c_v+22
	BYTE	W01
	BYTE		        c_v+24
	BYTE	W01
	BYTE		        c_v+22
	BYTE	W01
	BYTE		        c_v+20
	BYTE	W01
	BYTE		        c_v+17
	BYTE	W01
	BYTE		        c_v+15
	BYTE	W01
	BYTE		        c_v+13
	BYTE	W01
	BYTE		        c_v+10
	BYTE	W01
	BYTE		        c_v+8
	BYTE	W01
	BYTE		        c_v+6
	BYTE	W01
	BYTE		        c_v+4
	BYTE	W01
	BYTE		        c_v+2
	BYTE	W01
	BYTE		        c_v-1
	BYTE	W01
	BYTE		        c_v-3
	BYTE	W01
	BYTE		        c_v-5
	BYTE	W01
	BYTE		        c_v-8
	BYTE	W01
	BYTE		        c_v-10
	BYTE	W01
	BYTE		        c_v-12
	BYTE	W01
	BYTE		        c_v-14
	BYTE	W01
	BYTE		        c_v-16
	BYTE	W01
	BYTE		        c_v-18
	BYTE	W01
	BYTE		        c_v-21
	BYTE	W01
	BYTE		        c_v-23
	BYTE	W01
	BYTE		        c_v-25
	BYTE	W01
	BYTE		        c_v-28
	BYTE	W01
	BYTE		        c_v-30
	BYTE	W01
	BYTE		        c_v-32
	BYTE	W01
	BYTE		        c_v-33
	BYTE	W01
	BYTE		        c_v-32
	BYTE	W01
	BYTE		        c_v-30
	BYTE	W01
	BYTE		        c_v-29
	BYTE	W01
	BYTE		        c_v-27
	BYTE	W01
	BYTE		        c_v-26
	BYTE	W01
	BYTE		        c_v-25
	BYTE	W01
	BYTE		        c_v-23
	BYTE	W01
	BYTE		        c_v-22
	BYTE	W01
	BYTE		        c_v-20
	BYTE	W01
	BYTE		        c_v-19
	BYTE	W01
	BYTE		        c_v-17
	BYTE	W01
	BYTE		EOT   
	BYTE		PAN     c_v-16
	BYTE	W01
	BYTE		        c_v-15
	BYTE	W01
	BYTE		        c_v-13
	BYTE	W01
	BYTE		        c_v-12
	BYTE	W01
	BYTE		        c_v-10
	BYTE	W01
	BYTE		        c_v-9
	BYTE	W01
// 008   ----------------------------------------
	BYTE		        c_v-7
	BYTE	W01
	BYTE		        c_v-6
	BYTE	W01
	BYTE		        c_v-5
	BYTE	W01
	BYTE		        c_v-3
	BYTE	W01
	BYTE		        c_v-2
	BYTE	W01
	BYTE		        c_v-1
	BYTE	W01
	BYTE		        c_v+0
	BYTE	W01
	BYTE		        c_v+2
	BYTE	W01
	BYTE		        c_v+3
	BYTE	W01
	BYTE		        c_v+4
	BYTE	W01
	BYTE		        c_v+6
	BYTE	W01
	BYTE		        c_v+7
	BYTE	W01
	BYTE		        c_v+9
	BYTE	W01
	BYTE		        c_v+10
	BYTE	W01
	BYTE		        c_v+12
	BYTE	W01
	BYTE		        c_v+13
	BYTE	W01
	BYTE		        c_v+14
	BYTE	W01
	BYTE		        c_v+16
	BYTE	W01
	BYTE		        c_v+17
	BYTE	W01
	BYTE		        c_v+19
	BYTE	W01
	BYTE		        c_v+20
	BYTE	W01
	BYTE		        c_v+21
	BYTE	W72
	BYTE	W03
// 009   ----------------------------------------
	BYTE	W96
// 010   ----------------------------------------
	BYTE	W48
	BYTE	W01
	BYTE		TIE     Dn3   v104
	BYTE	W05
	BYTE		PAN     c_v+22
	BYTE	W01
	BYTE		        c_v+23
	BYTE	W01
	BYTE		        c_v+24
	BYTE	W01
	BYTE		        c_v+25
	BYTE	W01
	BYTE		        c_v+26
	BYTE	W01
	BYTE		        c_v+27
	BYTE	W01
	BYTE		        c_v+28
	BYTE	W01
	BYTE		        c_v+29
	BYTE	W02
	BYTE		        c_v+30
	BYTE	W01
	BYTE		        c_v+31
	BYTE	W01
	BYTE		        c_v+32
	BYTE	W01
	BYTE		        c_v+33
	BYTE	W01
	BYTE		        c_v+34
	BYTE	W01
	BYTE		        c_v+35
	BYTE	W01
	BYTE		        c_v+36
	BYTE	W01
	BYTE		        c_v+37
	BYTE	W01
	BYTE		        c_v+38
	BYTE	W01
	BYTE		        c_v+39
	BYTE	W01
	BYTE		        c_v+40
	BYTE	W01
	BYTE		        c_v+41
	BYTE	W01
	BYTE		        c_v+42
	BYTE	W01
	BYTE		        c_v+43
	BYTE	W01
	BYTE		        c_v+44
	BYTE	W01
	BYTE		        c_v+45
	BYTE	W01
	BYTE		        c_v+46
	BYTE	W01
	BYTE		        c_v+47
	BYTE	W01
	BYTE		        c_v+48
	BYTE	W01
	BYTE		        c_v+49
	BYTE	W02
	BYTE		        c_v+50
	BYTE	W01
	BYTE		        c_v+51
	BYTE	W01
	BYTE		        c_v+52
	BYTE	W01
	BYTE		        c_v+53
	BYTE	W01
	BYTE		        c_v+54
	BYTE	W01
	BYTE		        c_v+51
	BYTE	W01
	BYTE		        c_v+47
	BYTE	W01
	BYTE		        c_v+43
	BYTE	W01
	BYTE		        c_v+41
	BYTE	W01
	BYTE		        c_v+37
	BYTE	W01
	BYTE		        c_v+33
	BYTE	W01
	BYTE		        c_v+30
	BYTE	W01
// 011   ----------------------------------------
	BYTE		        c_v+26
	BYTE	W01
	BYTE		        c_v+22
	BYTE	W01
	BYTE		        c_v+19
	BYTE	W01
	BYTE		        c_v+15
	BYTE	W01
	BYTE		        c_v+11
	BYTE	W01
	BYTE		        c_v+8
	BYTE	W01
	BYTE		        c_v+4
	BYTE	W01
	BYTE		        c_v+0
	BYTE	W01
	BYTE		        c_v-3
	BYTE	W01
	BYTE		        c_v-7
	BYTE	W01
	BYTE		        c_v-11
	BYTE	W01
	BYTE		        c_v-13
	BYTE	W01
	BYTE		        c_v-18
	BYTE	W01
	BYTE		        c_v-22
	BYTE	W01
	BYTE		        c_v-24
	BYTE	W01
	BYTE		        c_v-28
	BYTE	W01
	BYTE		        c_v-32
	BYTE	W01
	BYTE		        c_v-35
	BYTE	W01
	BYTE		        c_v-39
	BYTE	W01
	BYTE		        c_v-43
	BYTE	W01
	BYTE		        c_v-46
	BYTE	W01
	BYTE		        c_v-50
	BYTE	W01
	BYTE		        c_v-54
	BYTE	W01
	BYTE		        c_v-57
	BYTE	W01
	BYTE		        c_v-61
	BYTE	W01
	BYTE		        c_v-64
	BYTE	W01
	BYTE		        c_v-62
	BYTE	W01
	BYTE		        c_v-59
	BYTE	W01
	BYTE		        c_v-56
	BYTE	W01
	BYTE		        c_v-54
	BYTE	W01
	BYTE		        c_v-51
	BYTE	W01
	BYTE		        c_v-48
	BYTE	W01
	BYTE		        c_v-46
	BYTE	W01
	BYTE		        c_v-43
	BYTE	W01
	BYTE		        c_v-40
	BYTE	W01
	BYTE		        c_v-39
	BYTE	W01
	BYTE		        c_v-36
	BYTE	W01
	BYTE		        c_v-33
	BYTE	W01
	BYTE		        c_v-31
	BYTE	W01
	BYTE		        c_v-28
	BYTE	W01
	BYTE		        c_v-25
	BYTE	W01
	BYTE		        c_v-23
	BYTE	W01
	BYTE		        c_v-20
	BYTE	W01
	BYTE		        c_v-17
	BYTE	W01
	BYTE		        c_v-15
	BYTE	W01
	BYTE		        c_v-13
	BYTE	W01
	BYTE		        c_v-10
	BYTE	W01
	BYTE		        c_v-8
	BYTE	W01
	BYTE		        c_v-5
	BYTE	W01
	BYTE		        c_v-2
	BYTE	W01
	BYTE		        c_v+0
	BYTE	W01
	BYTE		        c_v+3
	BYTE	W01
	BYTE		        c_v+6
	BYTE	W01
	BYTE		        c_v+8
	BYTE	W01
	BYTE		        c_v+11
	BYTE	W01
	BYTE		        c_v+13
	BYTE	W01
	BYTE		        c_v+15
	BYTE	W01
	BYTE		        c_v+18
	BYTE	W01
	BYTE		        c_v+21
	BYTE	W01
	BYTE		        c_v+23
	BYTE	W01
	BYTE		        c_v+26
	BYTE	W01
	BYTE		        c_v+29
	BYTE	W01
	BYTE		        c_v+31
	BYTE	W01
	BYTE		        c_v+34
	BYTE	W01
	BYTE		        c_v+37
	BYTE	W01
	BYTE		        c_v+38
	BYTE	W01
	BYTE		        c_v+41
	BYTE	W01
	BYTE		        c_v+44
	BYTE	W01
	BYTE		        c_v+46
	BYTE	W01
	BYTE		        c_v+49
	BYTE	W01
	BYTE		        c_v+52
	BYTE	W01
	BYTE		        c_v+54
	BYTE	W01
	BYTE		        c_v+57
	BYTE	W01
	BYTE		        c_v+60
	BYTE	W01
	BYTE		        c_v+62
	BYTE	W01
	BYTE		        c_v+61
	BYTE	W01
	BYTE		        c_v+57
	BYTE	W01
	BYTE		        c_v+55
	BYTE	W01
	BYTE		        c_v+51
	BYTE	W01
	BYTE		        c_v+47
	BYTE	W01
	BYTE		        c_v+45
	BYTE	W01
	BYTE		        c_v+41
	BYTE	W01
	BYTE		        c_v+38
	BYTE	W01
	BYTE		        c_v+35
	BYTE	W01
	BYTE		        c_v+31
	BYTE	W01
	BYTE		        c_v+28
	BYTE	W01
	BYTE		        c_v+25
	BYTE	W01
	BYTE		        c_v+22
	BYTE	W01
	BYTE		        c_v+18
	BYTE	W01
	BYTE		        c_v+15
	BYTE	W01
	BYTE		        c_v+12
	BYTE	W01
	BYTE		        c_v+8
	BYTE	W01
	BYTE		        c_v+6
	BYTE	W01
	BYTE		        c_v+2
	BYTE	W01
	BYTE		        c_v-1
	BYTE	W01
	BYTE		EOT   
	BYTE	W01
	BYTE	GoTo
	 POIN2	GharnefSong_8_B1
GharnefSong_8_B2:
// 012   ----------------------------------------
	BYTE	FINE

//**************** Track 9 (Midi-Chn.9) ****************//

GharnefSong_9:
	BYTE	KEYSH   GharnefSong_key+0
GharnefSong_9_B1:
// 000   ----------------------------------------
	BYTE		VOICE   40
	BYTE		VOL     95*GharnefSong_mvl/mxv
	BYTE		PAN     c_v-1
	BYTE		N56     Gn1   v108
	BYTE	W01
	BYTE		PAN     c_v-3
	BYTE	W01
	BYTE		        c_v-6
	BYTE	W01
	BYTE		        c_v-8
	BYTE	W01
	BYTE		        c_v-11
	BYTE	W01
	BYTE		        c_v-13
	BYTE	W01
	BYTE		        c_v-16
	BYTE	W01
	BYTE		        c_v-18
	BYTE	W01
	BYTE		        c_v-21
	BYTE	W01
	BYTE		        c_v-23
	BYTE	W01
	BYTE		        c_v-26
	BYTE	W01
	BYTE		        c_v-28
	BYTE	W01
	BYTE		        c_v-31
	BYTE	W01
	BYTE		        c_v-33
	BYTE	W01
	BYTE		        c_v-36
	BYTE	W01
	BYTE		        c_v-38
	BYTE	W01
	BYTE		        c_v-41
	BYTE	W01
	BYTE		        c_v-43
	BYTE	W01
	BYTE		        c_v-46
	BYTE	W01
	BYTE		        c_v-44
	BYTE	W01
	BYTE		        c_v-41
	BYTE	W01
	BYTE		        c_v-36
	BYTE	W01
	BYTE		        c_v-31
	BYTE	W01
	BYTE		        c_v-27
	BYTE	W01
	BYTE		        c_v-22
	BYTE	W01
	BYTE		        c_v-17
	BYTE	W01
	BYTE		        c_v-14
	BYTE	W01
	BYTE		        c_v-9
	BYTE	W01
	BYTE		        c_v-4
	BYTE	W01
	BYTE		        c_v-1
	BYTE	W01
	BYTE		        c_v+4
	BYTE	W01
	BYTE		        c_v+9
	BYTE	W01
	BYTE		        c_v+13
	BYTE	W01
	BYTE		        c_v+18
	BYTE	W01
	BYTE		        c_v+23
	BYTE	W01
	BYTE		        c_v+26
	BYTE	W01
	BYTE		        c_v+31
	BYTE	W01
	BYTE		        c_v+36
	BYTE	W01
	BYTE		        c_v+39
	BYTE	W01
	BYTE		        c_v+44
	BYTE	W56
	BYTE	W01
// 001   ----------------------------------------
	BYTE	W96
// 002   ----------------------------------------
	BYTE	W96
// 003   ----------------------------------------
	BYTE	W96
// 004   ----------------------------------------
	BYTE		        c_v-2
	BYTE		N56   
	BYTE	W01
	BYTE		PAN     c_v+0
	BYTE	W01
	BYTE		        c_v+2
	BYTE	W01
	BYTE		        c_v+3
	BYTE	W01
	BYTE		        c_v+5
	BYTE	W01
	BYTE		        c_v+7
	BYTE	W01
	BYTE		        c_v+9
	BYTE	W01
	BYTE		        c_v+10
	BYTE	W01
	BYTE		        c_v+12
	BYTE	W01
	BYTE		        c_v+14
	BYTE	W01
	BYTE		        c_v+16
	BYTE	W01
	BYTE		        c_v+17
	BYTE	W01
	BYTE		        c_v+19
	BYTE	W01
	BYTE		        c_v+21
	BYTE	W01
	BYTE		        c_v+23
	BYTE	W01
	BYTE		        c_v+24
	BYTE	W01
	BYTE		        c_v+26
	BYTE	W01
	BYTE		        c_v+28
	BYTE	W01
	BYTE		        c_v+30
	BYTE	W01
	BYTE		        c_v+31
	BYTE	W01
	BYTE		        c_v+33
	BYTE	W01
	BYTE		        c_v+35
	BYTE	W01
	BYTE		        c_v+36
	BYTE	W01
	BYTE		        c_v+38
	BYTE	W01
	BYTE		        c_v+35
	BYTE	W01
	BYTE		        c_v+29
	BYTE	W01
	BYTE		        c_v+25
	BYTE	W01
	BYTE		        c_v+19
	BYTE	W01
	BYTE		        c_v+13
	BYTE	W01
	BYTE		        c_v+9
	BYTE	W01
	BYTE		        c_v+3
	BYTE	W01
	BYTE		        c_v-3
	BYTE	W01
	BYTE		        c_v-7
	BYTE	W01
	BYTE		        c_v-14
	BYTE	W01
	BYTE		        c_v-20
	BYTE	W01
	BYTE		        c_v-24
	BYTE	W01
	BYTE		        c_v-30
	BYTE	W01
	BYTE		        c_v-36
	BYTE	W01
	BYTE		        c_v-40
	BYTE	W01
	BYTE		        c_v-46
	BYTE	W56
	BYTE	W01
// 005   ----------------------------------------
	BYTE	W96
// 006   ----------------------------------------
	BYTE	W96
// 007   ----------------------------------------
	BYTE	W96
// 008   ----------------------------------------
	BYTE		        c_v-1
	BYTE		N56   
	BYTE	W01
	BYTE		PAN     c_v-3
	BYTE	W01
	BYTE		        c_v-6
	BYTE	W01
	BYTE		        c_v-8
	BYTE	W01
	BYTE		        c_v-11
	BYTE	W01
	BYTE		        c_v-13
	BYTE	W01
	BYTE		        c_v-16
	BYTE	W01
	BYTE		        c_v-18
	BYTE	W01
	BYTE		        c_v-21
	BYTE	W01
	BYTE		        c_v-23
	BYTE	W01
	BYTE		        c_v-26
	BYTE	W01
	BYTE		        c_v-28
	BYTE	W01
	BYTE		        c_v-31
	BYTE	W01
	BYTE		        c_v-33
	BYTE	W01
	BYTE		        c_v-36
	BYTE	W01
	BYTE		        c_v-38
	BYTE	W01
	BYTE		        c_v-41
	BYTE	W01
	BYTE		        c_v-43
	BYTE	W01
	BYTE		        c_v-46
	BYTE	W01
	BYTE		        c_v-44
	BYTE	W01
	BYTE		        c_v-41
	BYTE	W01
	BYTE		        c_v-36
	BYTE	W01
	BYTE		        c_v-31
	BYTE	W01
	BYTE		        c_v-27
	BYTE	W01
	BYTE		        c_v-22
	BYTE	W01
	BYTE		        c_v-17
	BYTE	W01
	BYTE		        c_v-14
	BYTE	W01
	BYTE		        c_v-9
	BYTE	W01
	BYTE		        c_v-4
	BYTE	W01
	BYTE		        c_v-1
	BYTE	W01
	BYTE		        c_v+4
	BYTE	W01
	BYTE		        c_v+9
	BYTE	W01
	BYTE		        c_v+13
	BYTE	W01
	BYTE		        c_v+18
	BYTE	W01
	BYTE		        c_v+23
	BYTE	W01
	BYTE		        c_v+26
	BYTE	W01
	BYTE		        c_v+31
	BYTE	W01
	BYTE		        c_v+36
	BYTE	W01
	BYTE		        c_v+39
	BYTE	W01
	BYTE		        c_v+44
	BYTE	W56
	BYTE	W01
// 009   ----------------------------------------
	BYTE	W96
// 010   ----------------------------------------
	BYTE	W96
// 011   ----------------------------------------
	BYTE	W96
	BYTE	GoTo
	 POIN2	GharnefSong_9_B1
GharnefSong_9_B2:
// 012   ----------------------------------------
	BYTE	FINE

//**************** Track 10 (Midi-Chn.12) ****************//

GharnefSong_10:
	BYTE	KEYSH   GharnefSong_key+0
GharnefSong_10_B1:
// 000   ----------------------------------------
	BYTE		VOICE   40
	BYTE		MOD     0
	BYTE	W08
	BYTE		VOL     50*GharnefSong_mvl/mxv
	BYTE		PAN     c_v+63
	BYTE		TIE     Cn2   v104
	BYTE	W12
	BYTE	W09
	BYTE	W09
	BYTE	W09
	BYTE	W06
	BYTE	W06
	BYTE	W06
	BYTE	W06
	BYTE	W06
	BYTE	W06
	BYTE	W06
	BYTE	W03
	BYTE	W04
// 001   ----------------------------------------
	BYTE	W02
	BYTE	W03
	BYTE	W03
	BYTE	W06
	BYTE	W03
	BYTE	W03
	BYTE	W01
	BYTE		MOD     1
	BYTE	W02
	BYTE	W03
	BYTE	W01
	BYTE		        2
	BYTE	W02
	BYTE	W02
	BYTE		        3
	BYTE	W01
	BYTE	W03
	BYTE	W03
	BYTE		        4
	BYTE	W03
	BYTE		        5
	BYTE	W03
	BYTE	W03
	BYTE	W01
	BYTE		        6
	BYTE	W02
	BYTE	W01
	BYTE		        7
	BYTE	W02
	BYTE	W01
	BYTE		        8
	BYTE	W02
	BYTE	W02
	BYTE		        9
	BYTE	W01
	BYTE	W02
	BYTE		        10
	BYTE	W01
	BYTE	W03
	BYTE		        11
	BYTE	W03
	BYTE		        12
	BYTE	W03
	BYTE		        14
	BYTE	W03
	BYTE	W01
	BYTE		        15
	BYTE	W02
	BYTE	W01
	BYTE		        17
	BYTE	W02
	BYTE	W01
	BYTE		        18
	BYTE	W02
	BYTE	W01
	BYTE	W01
	BYTE		        20
	BYTE	W03
	BYTE		        22
	BYTE	W01
	BYTE		        23
	BYTE	W07
// 002   ----------------------------------------
	BYTE	W07
	BYTE		EOT   
	BYTE	W01
	BYTE		N02     Cs2   v120
	BYTE	W06
	BYTE		        Cn2 
	BYTE	W05
	BYTE		MOD     22
	BYTE	W04
	BYTE	W04
	BYTE	W04
	BYTE	W01
	BYTE		        21
	BYTE		N02     Cs2   v112
	BYTE	W03
	BYTE	W03
	BYTE		        Cn2   v108
	BYTE	W01
	BYTE	W04
	BYTE	W02
	BYTE		MOD     20
	BYTE	W02
	BYTE	W04
	BYTE	W04
	BYTE	W01
	BYTE		N02     Cs2   v100
	BYTE	W02
	BYTE		MOD     19
	BYTE	W01
	BYTE	W03
	BYTE		N02     Cn2 
	BYTE	W04
	BYTE	W04
	BYTE	W01
	BYTE		MOD     18
	BYTE	W03
	BYTE	W04
	BYTE	W02
	BYTE		N02     Cs2   v092
	BYTE	W02
	BYTE	W02
	BYTE		MOD     17
	BYTE	W02
	BYTE		N02     Cn2   v088
	BYTE	W04
	BYTE	W04
	BYTE	W02
// 003   ----------------------------------------
	BYTE	W01
	BYTE		MOD     16
	BYTE	W01
	BYTE	W03
	BYTE	W03
	BYTE		N02     Cs2   v080
	BYTE	W01
	BYTE	W04
	BYTE	W01
	BYTE		MOD     15
	BYTE		N02     Cn2 
	BYTE	W03
	BYTE	W04
	BYTE	W04
	BYTE	W03
	BYTE		MOD     14
	BYTE	W01
	BYTE	W03
	BYTE		N02     Cs2   v072
	BYTE	W01
	BYTE	W04
	BYTE	W01
	BYTE		        Cn2   v068
	BYTE	W03
	BYTE		MOD     13
	BYTE	W03
	BYTE	W04
	BYTE	W04
	BYTE	W02
	BYTE		        12
	BYTE	W02
	BYTE		N02     Cs2   v060
	BYTE	W04
	BYTE	W02
	BYTE		        Cn2 
	BYTE	W02
	BYTE	W03
	BYTE		MOD     11
	BYTE	W01
	BYTE	W04
	BYTE	W04
	BYTE	W04
	BYTE		        10
	BYTE		N02     Cs2   v052
	BYTE	W03
	BYTE	W03
	BYTE		        Cn2   v048
	BYTE	W01
	BYTE	W04
	BYTE	W02
	BYTE		MOD     9
	BYTE	W02
	BYTE	W01
// 004   ----------------------------------------
	BYTE	W03
	BYTE	W04
	BYTE	W01
	BYTE		N02     Cs2   v040
	BYTE	W02
	BYTE		MOD     8
	BYTE	W01
	BYTE	W03
	BYTE		N02     Cn2 
	BYTE	W01
	BYTE	W04
	BYTE	W04
	BYTE		MOD     7
	BYTE	W03
	BYTE	W04
	BYTE	W02
	BYTE		N02     Cs2   v032
	BYTE	W02
	BYTE	W02
	BYTE		MOD     6
	BYTE	W02
	BYTE		N02     Cn2   v028
	BYTE	W04
	BYTE	W04
	BYTE	W03
	BYTE		MOD     5
	BYTE	W01
	BYTE	W04
	BYTE	W02
	BYTE		N02     Cs2   v020
	BYTE	W02
	BYTE	W04
	BYTE		        Cn2 
	BYTE	W01
	BYTE		MOD     4
	BYTE	W02
	BYTE	W04
	BYTE	W04
	BYTE	W03
	BYTE		        3
	BYTE	W01
	BYTE	W03
	BYTE		N02     Cs2   v012
	BYTE	W01
	BYTE	W04
	BYTE	W01
	BYTE		        Cn2   v008
	BYTE	W03
	BYTE		MOD     2
	BYTE	W04
	BYTE	W03
// 005   ----------------------------------------
	BYTE	W01
	BYTE	W04
	BYTE	W01
	BYTE		        0
	BYTE	W01
	BYTE	W01
	BYTE		N44     Cs2   v104
	BYTE	W01
	BYTE	W44
	BYTE	W03
	BYTE		        En2   v092
	BYTE	W12
	BYTE	W01
	BYTE	W02
	BYTE	W01
	BYTE	W02
	BYTE	W01
	BYTE	W02
	BYTE	W01
	BYTE	W02
	BYTE	W01
	BYTE	W02
	BYTE	W01
	BYTE	W02
	BYTE	W01
	BYTE	W02
	BYTE	W01
	BYTE	W02
	BYTE	W01
	BYTE	W02
	BYTE	W01
// 006   ----------------------------------------
	BYTE	W02
	BYTE	W01
	BYTE	W02
	BYTE	W01
	BYTE	W02
	BYTE		TIE     As2   v080
	BYTE	W09
	BYTE	W06
	BYTE	W06
	BYTE	W06
	BYTE	W06
	BYTE	W06
	BYTE	W06
	BYTE	W03
	BYTE	W06
	BYTE	W03
	BYTE	W06
	BYTE	W03
	BYTE	W06
	BYTE	W03
	BYTE	W03
	BYTE	W03
	BYTE	W03
	BYTE	W04
// 007   ----------------------------------------
	BYTE	W02
	BYTE	W03
	BYTE	W03
	BYTE	W03
	BYTE	W03
	BYTE	W03
	BYTE	W03
	BYTE	W03
	BYTE	W03
	BYTE	W03
	BYTE		MOD     1
	BYTE	W03
	BYTE	W03
	BYTE	W02
	BYTE		        2
	BYTE	W01
	BYTE	W03
	BYTE	W03
	BYTE	W01
	BYTE		        3
	BYTE	W02
	BYTE	W02
	BYTE		        4
	BYTE	W01
	BYTE	W03
	BYTE	W03
	BYTE	W01
	BYTE		        5
	BYTE	W02
	BYTE	W02
	BYTE		        6
	BYTE	W01
	BYTE	W03
	BYTE		        7
	BYTE	W03
	BYTE	W01
	BYTE		        8
	BYTE	W02
	BYTE	W02
	BYTE		        9
	BYTE	W01
	BYTE	W03
	BYTE		        10
	BYTE	W01
	BYTE	W03
	BYTE		        11
	BYTE	W04
	BYTE		        12
	BYTE	W01
	BYTE	W03
	BYTE		        14
	BYTE	W01
	BYTE	W03
	BYTE		        15
	BYTE	W01
	BYTE	W02
// 008   ----------------------------------------
	BYTE	W01
	BYTE		        17
	BYTE	W01
	BYTE	W03
	BYTE		        19
	BYTE	W01
	BYTE	W01
	BYTE		EOT   
	BYTE	W01
	BYTE		N02     Bn2   v120
	BYTE	W01
	BYTE		MOD     22
	BYTE	W01
	BYTE	W04
	BYTE		N02     As2 
	BYTE	W04
	BYTE	W04
	BYTE	W04
	BYTE	W04
	BYTE	W02
	BYTE		        Bn2   v112
	BYTE	W02
	BYTE	W01
	BYTE		MOD     21
	BYTE	W03
	BYTE		N02     As2   v108
	BYTE	W04
	BYTE	W04
	BYTE	W02
	BYTE		MOD     20
	BYTE	W02
	BYTE	W04
	BYTE	W02
	BYTE		N02     Bn2   v100
	BYTE	W02
	BYTE	W03
	BYTE		MOD     19
	BYTE	W01
	BYTE		N02     As2 
	BYTE	W04
	BYTE	W04
	BYTE	W04
	BYTE		MOD     18
	BYTE	W04
	BYTE	W02
	BYTE		N02     Bn2   v092
	BYTE	W02
	BYTE	W04
	BYTE		        As2   v088
	BYTE	W01
	BYTE		MOD     17
	BYTE	W03
	BYTE	W04
	BYTE	W02
// 009   ----------------------------------------
	BYTE	W02
	BYTE	W02
	BYTE		        16
	BYTE	W02
	BYTE	W02
	BYTE		N02     Bn2   v080
	BYTE	W02
	BYTE	W04
	BYTE		        As2 
	BYTE	W03
	BYTE		MOD     15
	BYTE	W01
	BYTE	W04
	BYTE	W04
	BYTE	W04
	BYTE		        14
	BYTE	W02
	BYTE		N02     Bn2   v072
	BYTE	W02
	BYTE	W04
	BYTE		        As2   v068
	BYTE	W04
	BYTE	W01
	BYTE		MOD     13
	BYTE	W03
	BYTE	W04
	BYTE	W04
	BYTE	W02
	BYTE		        12
	BYTE		N02     Bn2   v060
	BYTE	W02
	BYTE	W04
	BYTE		        As2 
	BYTE	W04
	BYTE	W03
	BYTE		MOD     11
	BYTE	W01
	BYTE	W04
	BYTE	W04
	BYTE	W02
	BYTE		N02     Bn2   v052
	BYTE	W02
	BYTE		MOD     10
	BYTE	W04
	BYTE		N02     As2   v048
	BYTE	W04
	BYTE	W04
	BYTE	W01
	BYTE		MOD     9
	BYTE	W01
// 010   ----------------------------------------
	BYTE	W02
	BYTE	W04
	BYTE	W02
	BYTE		N02     Bn2   v040
	BYTE	W02
	BYTE	W02
	BYTE		MOD     8
	BYTE	W02
	BYTE		N02     As2 
	BYTE	W04
	BYTE	W04
	BYTE	W03
	BYTE		MOD     7
	BYTE	W01
	BYTE	W04
	BYTE	W02
	BYTE		N02     Bn2   v032
	BYTE	W02
	BYTE	W04
	BYTE		MOD     6
	BYTE		N02     As2   v028
	BYTE	W04
	BYTE	W04
	BYTE	W04
	BYTE	W01
	BYTE		MOD     5
	BYTE	W03
	BYTE	W02
	BYTE		N02     Bn2   v020
	BYTE	W02
	BYTE	W04
	BYTE		        As2 
	BYTE	W02
	BYTE		MOD     4
	BYTE	W02
	BYTE	W04
	BYTE	W04
	BYTE	W03
	BYTE		        3
	BYTE	W01
	BYTE	W02
	BYTE		N02     Bn2   v012
	BYTE	W02
	BYTE	W04
	BYTE		        As2   v008
	BYTE	W04
	BYTE		MOD     2
	BYTE	W04
	BYTE	W02
// 011   ----------------------------------------
	BYTE	W02
	BYTE	W04
	BYTE	W01
	BYTE		        1
	BYTE	W01
	BYTE		        0
	BYTE	W88
	BYTE	GoTo
	 POIN2	GharnefSong_10_B1
GharnefSong_10_B2:
// 012   ----------------------------------------
	BYTE	FINE

//******************************************************//
	ALIGN 4

GharnefSong:
	BYTE	10	// NumTrks
	BYTE	0	// NumBlks
	BYTE	GharnefSong_pri	// Priority
	BYTE	GharnefSong_rev	// Reverb.

	POIN2	GharnefSong_grp

	POIN2	GharnefSong_1
	POIN2	GharnefSong_2
	POIN2	GharnefSong_3
	POIN2	GharnefSong_4
	POIN2	GharnefSong_5
	POIN2	GharnefSong_6
	POIN2	GharnefSong_7
	POIN2	GharnefSong_8
	POIN2	GharnefSong_9
	POIN2	GharnefSong_10

	
